<?xml version="1.0" encoding="utf-8" standalone="yes"?>
<!DOCTYPE svg PUBLIC "-//W3C//DTD SVG 1.1//EN" "http://www.w3.org/Graphics/SVG/1.1/DTD/svg11.dtd">
<svg width="687" height="735" viewBox="0 0 687 735" style="fill:none;stroke:none;fill-rule:evenodd;clip-rule:evenodd;stroke-linecap:round;stroke-linejoin:round;stroke-miterlimit:1.5;" version="1.1" xmlns="http://www.w3.org/2000/svg" xmlns:xlink="http://www.w3.org/1999/xlink"><style class="text-font-style fontImports" data-font-family="Roboto">@import url('https://fonts.googleapis.com/css2?family=Roboto:wght@400;700&amp;display=block');</style><g id="items" style="isolation: isolate"><g id="blend" style="mix-blend-mode: normal"><g id="g-root--1.cu_sy_dkgd483d6ygx-fill" data-item-order="-178516" transform="translate(74.99996948242188, 192.69580078125)"><g id="-1.cu_sy_dkgd483d6ygx-fill" stroke="none" fill="#ababab"><g><path d="M 45.999987 10C 64.470185 11.4847 84.738385 12.3046 105.999985 12.3046C 127.261585 12.3046 147.529985 11.4847 165.999985 10.00001L 165.999985 65.3047C 165.999985 71.6419 139.137085 76.7791 105.999985 76.7791C 72.862885 76.7791 45.999984 71.6419 45.999985 65.3047L 45.999987 10ZM 45.999979 106.024903C 64.470177 107.509603 84.738377 108.329503 105.999977 108.329503C 127.261577 108.329503 147.529977 107.509603 165.999977 106.024912L 165.999977 161.329603C 165.999977 167.666803 139.137077 172.804003 105.999977 172.804003C 72.862877 172.804003 45.999977 167.666803 45.999977 161.329603L 45.999979 106.024903ZM 45.999995 202.049805C 64.470192 203.534505 84.738392 204.354405 105.999992 204.354405C 127.261592 204.354405 147.529992 203.534505 165.999992 202.049815L 165.999992 257.354505C 165.999992 263.691705 139.137092 268.828905 105.999992 268.828905C 72.862892 268.828905 45.999992 263.691705 45.999992 257.354505L 45.999995 202.049805ZM 45.999987 298.074707C 64.470185 299.559407 84.738385 300.379307 105.999985 300.379307C 127.261585 300.379307 147.529985 299.559407 165.999985 298.074717L 165.999985 353.379407C 165.999985 359.716607 139.137085 364.853807 105.999985 364.853807C 72.862885 364.853807 45.999984 359.716607 45.999985 353.379407L 45.999987 298.074707ZM 46 394.304169C 64.4702 395.788869 84.7384 396.608769 106 396.608769C 127.262 396.608769 147.53 395.788869 166 394.304179L 166 420.483869L 202 420.483869L 106 492.483869L 10 420.483869L 46 420.483869L 46 394.304169Z"></path></g></g></g><g id="g-root-5.cu_sy_4pftyg3d6w3u-fill" data-item-order="-178512" transform="translate(15, 509.3046875)"><g id="5.cu_sy_4pftyg3d6w3u-fill" stroke="none" fill="#f79438"><g><path d="M 322.000001 37.7655L 322.000001 49.6254C 322.000001 66.2326 252.156001 79.6954 166.000001 79.6954C 79.843601 79.6954 10 66.2326 10.000001 49.6254L 10.000001 37.7655C 10.000002 25.2565 49.625201 14.5316 106.000001 10L 106.000001 36.7707C 106.000001 43.1078 132.863001 48.2451 166.000001 48.2451C 199.137001 48.2451 226.000001 43.1078 226.000001 36.7707L 226.000001 10.00001C 282.375001 14.5316 322.000001 25.2566 322.000001 37.7655Z"></path></g></g></g><g id="g-root-4.cu_sy_9mbu03d6ww3-fill" data-item-order="-178508" transform="translate(15, 413.30462646484375)"><g id="4.cu_sy_9mbu03d6ww3-fill" stroke="none" fill="#ffe711"><g><path d="M 322.000001 37.7655L 322.000001 49.6254C 322.000001 66.2326 252.156001 79.6954 166.000001 79.6954C 79.843601 79.6954 10 66.2326 10.000001 49.6254L 10.000001 37.7655C 10.000002 25.2565 49.625201 14.5316 106.000001 10L 106.000001 36.7457C 106.000001 43.0829 132.863001 48.2202 166.000001 48.2202C 199.137001 48.2202 226.000001 43.0829 226.000001 36.7458L 226.000001 10.00001C 282.375001 14.5316 322.000001 25.2566 322.000001 37.7655Z"></path></g></g></g><g id="g-root-3.cu_sy_1cu9qw83d8ah8-fill" data-item-order="-178504" transform="translate(15, 317.30462646484375)"><g id="3.cu_sy_1cu9qw83d8ah8-fill" stroke="none" fill="#a6da37"><g><path d="M 322.000002 37.7655L 322.000002 49.6254C 322.000002 66.2326 252.156002 79.6954 166.000002 79.6954C 79.843602 79.6954 10.000001 66.2326 10.000002 49.6254L 10.000002 37.7655C 10.000003 25.2565 49.625202 14.5316 106.000002 10L 106.000002 36.7208C 106.000002 43.058 132.863002 48.1953 166.000002 48.1953C 199.137002 48.1953 226.000002 43.058 226.000002 36.7209L 226.000002 10.00001C 282.375002 14.5316 322.000002 25.2566 322.000002 37.7655Z"></path></g></g></g><g id="g-root-2.cu_sy_zit8iw3d8c25-fill" data-item-order="-178500" transform="translate(15, 221.30462646484375)"><g id="2.cu_sy_zit8iw3d8c25-fill" stroke="none" fill="#43dd93"><g><path d="M 322.000002 37.7655L 322.000002 49.6254C 322.000002 66.2326 252.156002 79.6954 166.000002 79.6954C 79.843602 79.6954 10.000001 66.2326 10.000002 49.6254L 10.000002 37.7655C 10.000003 25.2565 49.625202 14.5316 106.000002 10L 106.000002 36.6959C 106.000002 43.0331 132.863002 48.1704 166.000002 48.1704C 199.137002 48.1704 226.000002 43.0331 226.000002 36.696L 226.000002 10.00001C 282.375002 14.5316 322.000002 25.2566 322.000002 37.7655Z"></path></g></g></g><g id="g-root-1.cu_sy_v2zqeg3d8cue-fill" data-item-order="-178496" transform="translate(15, 123)"><g id="1.cu_sy_v2zqeg3d8cue-fill" stroke="none" fill="#1ac3fb"><g><path d="M 166 70.1401C 79.8436 70.1401 10 56.6773 10 40.07C 10 23.4628 79.8436 9.999993 166 10C 252.156 10.000006 322 23.4628 322 40.0701C 322 56.6773 252.156 70.1401 166 70.1401ZM 10.000002 51.9299C 10.000002 68.5372 79.8436 82 166 82C 252.156 82 322 68.5372 322 51.93L 322 40.0701C 322 56.6773 252.156 70.1401 166 70.1401C 79.8436 70.1401 10 56.6773 10 40.07L 10.000002 51.9299Z"></path></g></g></g><g id="g-root-0.cu_sy_1cvip2g3d8cnb-fill" data-item-order="-178492" transform="translate(32, 103)"><g id="0.cu_sy_1cvip2g3d8cnb-fill" stroke="none" fill="#e8e8e8"><g><path d="M 47.999998 154.8432C 47.999998 154.2322 48.291598 153.6658 48.711698 153.2221C 50.105298 151.7501 50.999998 149.5717 50.999998 147.5C 50.999998 143.9101 48.313698 141 44.999998 141C 41.686298 141 38.999998 143.9101 38.999998 147.5C 38.999998 149.5717 39.894698 151.7501 41.288298 153.2221C 41.708398 153.6658 41.999998 154.2322 41.999998 154.8432L 41.999998 155C 41.999998 156.1046 41.104598 157 39.999998 157L 38.999998 157C 35.686298 157 32.999998 159.6863 32.999998 163L 32.999998 167C 32.999998 168.1046 38.372598 169 44.999998 169C 51.627398 169 56.999998 168.1046 56.999998 167L 56.999998 163C 56.999998 159.6863 54.313698 157 50.999998 157L 49.999998 157C 48.895398 157 47.999998 156.1046 47.999998 155L 47.999998 154.8432ZM 251.000006 154.8432C 251.000006 154.232193 250.708411 153.665802 250.288306 153.222106C 248.89472 151.750106 248.000006 149.571701 248.000006 147.5C 248.000006 143.910095 250.686316 141 254.000006 141C 257.313696 141 260.000006 143.910095 260.000006 147.5C 260.000006 149.571701 259.105292 151.750106 257.711706 153.222106C 257.291601 153.665802 257.000006 154.232193 257.000006 154.8432L 257.000006 155C 257.000006 156.104599 257.895392 157 259.000006 157L 260.000006 157C 263.313696 157 266.000006 159.686294 266.000006 163L 266.000006 167C 266.000006 168.104599 260.627417 169 254.000006 169C 247.372595 169 242.000006 168.104599 242.000006 167L 242.000006 163C 242.000006 159.686294 244.686316 157 248.000006 157L 249.000006 157C 250.10462 157 251.000006 156.104599 251.000006 155L 251.000006 154.8432ZM 25 137.8432C 25 137.2322 25.2916 136.6658 25.7117 136.2221C 27.1053 134.7501 28 132.5717 28 130.5C 28 126.9101 25.3137 124 22 124C 18.6863 124 16 126.9101 16 130.5C 16 132.5717 16.8947 134.7501 18.2883 136.2221C 18.7084 136.6658 19 137.2322 19 137.8432L 19 138C 19 139.1046 18.1046 140 17 140L 16 140C 12.6863 140 10 142.6863 10 146L 10 150C 10 151.1046 15.3726 152 22 152C 28.6274 152 34 151.1046 34 150L 34 146C 34 142.6863 31.3137 140 28 140L 27 140C 25.8954 140 25 139.1046 25 138L 25 137.8432ZM 273.000006 137.8432C 273.000006 137.232193 272.708411 136.665802 272.288306 136.222106C 270.89472 134.750106 270.000006 132.571701 270.000006 130.5C 270.000006 126.910095 272.686316 124 276.000006 124C 279.313696 124 282.000006 126.910095 282.000006 130.5C 282.000006 132.571701 281.105292 134.750106 279.711706 136.222106C 279.291601 136.665802 279.000006 137.232193 279.000006 137.8432L 279.000006 138C 279.000006 139.104599 279.895392 140 281.000006 140L 282.000006 140C 285.313696 140 288.000006 142.686294 288.000006 146L 288.000006 150C 288.000006 151.104599 282.627417 152 276.000006 152C 269.372595 152 264.000006 151.104599 264.000006 150L 264.000006 146C 264.000006 142.686294 266.686316 140 270.000006 140L 271.000006 140C 272.10462 140 273.000006 139.104599 273.000006 138L 273.000006 137.8432ZM 73.999998 123.8432C 73.999998 123.2322 74.291598 122.6658 74.711698 122.2221C 76.105298 120.7501 76.999998 118.5717 76.999998 116.5C 76.999998 112.9101 74.313698 110 70.999998 110C 67.686298 110 64.999998 112.9101 64.999998 116.5C 64.999998 118.5717 65.894698 120.7501 67.288298 122.2221C 67.708398 122.6658 67.999998 123.2322 67.999998 123.8432L 67.999998 124C 67.999998 125.1046 67.104598 126 65.999998 126L 64.999998 126C 61.686298 126 58.999998 128.6863 58.999998 132L 58.999998 136C 58.999998 137.1046 64.372598 138 70.999998 138C 77.627398 138 82.999998 137.1046 82.999998 136L 82.999998 132C 82.999998 128.6863 80.313698 126 76.999998 126L 75.999998 126C 74.895398 126 73.999998 125.1046 73.999998 124L 73.999998 123.8432ZM 224.000006 123.8432C 224.000006 123.232193 223.708411 122.665802 223.288306 122.222106C 221.894705 120.750106 221.000006 118.571701 221.000006 116.5C 221.000006 112.910095 223.686301 110 227.000006 110C 230.313711 110 233.000006 112.910095 233.000006 116.5C 233.000006 118.571701 232.105307 120.750106 230.711706 122.222106C 230.291601 122.665802 230.000006 123.232193 230.000006 123.8432L 230.000006 124C 230.000006 125.104599 230.895407 126 232.000006 126L 233.000006 126C 236.313711 126 239.000006 128.686294 239.000006 132L 239.000006 136C 239.000006 137.104599 233.627402 138 227.000006 138C 220.37261 138 215.000006 137.104599 215.000006 136L 215.000006 132C 215.000006 128.686294 217.686301 126 221.000006 126L 222.000006 126C 223.104605 126 224.000006 125.104599 224.000006 124L 224.000006 123.8432ZM 115.999998 163.8432C 115.999998 163.2322 116.291598 162.6658 116.711698 162.2221C 118.105298 160.7501 118.999998 158.5717 118.999998 156.5C 118.999998 152.9101 116.313698 150 112.999998 150C 109.686298 150 106.999998 152.9101 106.999998 156.5C 106.999998 158.5717 107.894698 160.7501 109.288298 162.2221C 109.708398 162.6658 109.999998 163.2322 109.999998 163.8432L 109.999998 164C 109.999998 165.1046 109.104598 166 107.999998 166L 106.999998 166C 103.686298 166 100.999998 168.6863 100.999998 172L 100.999998 176C 100.999998 177.1046 106.372598 178 112.999998 178C 119.627398 178 124.999998 177.1046 124.999998 176L 124.999998 172C 124.999998 168.6863 122.313698 166 118.999998 166L 117.999998 166C 116.895398 166 115.999998 165.1046 115.999998 164L 115.999998 163.8432ZM 188.000006 163.8432C 188.000006 163.2322 188.291606 162.6658 188.711706 162.2221C 190.105306 160.7501 191.000006 158.5717 191.000006 156.5C 191.000006 152.9101 188.313706 150 185.000006 150C 181.686306 150 179.000006 152.9101 179.000006 156.5C 179.000006 158.5717 179.894706 160.7501 181.288306 162.2221C 181.708406 162.6658 182.000006 163.2322 182.000006 163.8432L 182.000006 164C 182.000006 165.1046 181.104606 166 180.000006 166L 179.000006 166C 175.686306 166 173.000006 168.6863 173.000006 172L 173.000006 176C 173.000006 177.1046 178.372606 178 185.000006 178C 191.627406 178 197.000006 177.1046 197.000006 176L 197.000006 172C 197.000006 168.6863 194.313706 166 191.000006 166L 190.000006 166C 188.895406 166 188.000006 165.1046 188.000006 164L 188.000006 163.8432ZM 79.999998 160.8432C 79.999998 160.2322 80.291598 159.6658 80.711698 159.2221C 82.105298 157.7501 82.999998 155.5717 82.999998 153.5C 82.999998 149.9101 80.313698 147 76.999998 147C 73.686298 147 70.999998 149.9101 70.999998 153.5C 70.999998 155.5717 71.894698 157.7501 73.288298 159.2221C 73.708398 159.6658 73.999998 160.2322 73.999998 160.8432L 73.999998 161C 73.999998 162.1046 73.104598 163 71.999998 163L 70.999998 163C 67.686298 163 64.999998 165.6863 64.999998 169L 64.999998 173C 64.999998 174.1046 70.372598 175 76.999998 175C 83.627398 175 88.999998 174.1046 88.999998 173L 88.999998 169C 88.999998 165.6863 86.313698 163 82.999998 163L 81.999998 163C 80.895398 163 79.999998 162.1046 79.999998 161L 79.999998 160.8432ZM 218.000006 160.8432C 218.000006 160.232193 217.708411 159.665802 217.288306 159.222106C 215.894705 157.750106 215.000006 155.571701 215.000006 153.5C 215.000006 149.910095 217.686301 147 221.000006 147C 224.313711 147 227.000006 149.910095 227.000006 153.5C 227.000006 155.571701 226.105307 157.750106 224.711706 159.222106C 224.291601 159.665802 224.000006 160.232193 224.000006 160.8432L 224.000006 161C 224.000006 162.104599 224.895407 163 226.000006 163L 227.000006 163C 230.313711 163 233.000006 165.686294 233.000006 169L 233.000006 173C 233.000006 174.104599 227.627402 175 221.000006 175C 214.37261 175 209.000006 174.104599 209.000006 173L 209.000006 169C 209.000006 165.686294 211.686301 163 215.000006 163L 216.000006 163C 217.104605 163 218.000006 162.104599 218.000006 161L 218.000006 160.8432ZM 146.000006 165.8432C 146.000006 165.232193 145.708411 164.665802 145.288306 164.222106C 143.894705 162.750106 143.000006 160.571701 143.000006 158.5C 143.000006 154.910095 145.686301 152 149.000006 152C 152.313711 152 155.000006 154.910095 155.000006 158.5C 155.000006 160.571701 154.105307 162.750106 152.711706 164.222106C 152.291601 164.665802 152.000006 165.232193 152.000006 165.8432L 152.000006 166C 152.000006 167.104599 152.895407 168 154.000006 168L 155.000006 168C 158.313711 168 161.000006 170.686294 161.000006 174L 161.000006 178C 161.000006 179.104614 155.627402 180 149.000006 180C 142.37261 180 137.000006 179.104614 137.000006 178L 137.000006 174C 137.000006 170.686294 139.686301 168 143.000006 168L 144.000006 168C 145.104605 168 146.000006 167.104599 146.000006 166L 146.000006 165.8432ZM 47.999998 58.8432C 47.999998 58.2322 48.291598 57.6658 48.711698 57.2221C 50.105298 55.7501 50.999998 53.5717 50.999998 51.5C 50.999998 47.9101 48.313698 45 44.999998 45C 41.686298 45 38.999998 47.9101 38.999998 51.5C 38.999998 53.5717 39.894698 55.7501 41.288298 57.2221C 41.708398 57.6658 41.999998 58.2322 41.999998 58.8432L 41.999998 59C 41.999998 60.1046 41.104598 61 39.999998 61L 38.999998 61C 35.686298 61 32.999998 63.6863 32.999998 67L 32.999998 71C 32.999998 72.1046 38.372598 73 44.999998 73C 51.627398 73 56.999998 72.1046 56.999998 71L 56.999998 67C 56.999998 63.6863 54.313698 61 50.999998 61L 49.999998 61C 48.895398 61 47.999998 60.1046 47.999998 59L 47.999998 58.8432ZM 250.000006 58.8432C 250.000006 58.232193 249.708411 57.665802 249.288306 57.222106C 247.89472 55.750106 247.000006 53.571701 247.000006 51.5C 247.000006 47.910102 249.686316 45 253.000006 45C 256.313696 45 259.000006 47.910102 259.000006 51.5C 259.000006 53.571701 258.105292 55.750106 256.711706 57.222106C 256.291601 57.665802 256.000006 58.232193 256.000006 58.8432L 256.000006 59C 256.000006 60.104599 256.895392 61 258.000006 61L 259.000006 61C 262.313696 61 265.000006 63.686294 265.000006 67L 265.000006 71C 265.000006 72.104599 259.627417 73 253.000006 73C 246.372595 73 241.000006 72.104599 241.000006 71L 241.000006 67C 241.000006 63.686294 243.686316 61 247.000006 61L 248.000006 61C 249.10462 61 250.000006 60.104599 250.000006 59L 250.000006 58.8432ZM 25 41.8432C 25 41.2322 25.2916 40.6658 25.7117 40.2221C 27.1053 38.7501 28 36.5717 28 34.5C 28 30.9101 25.3137 28 22 28C 18.6863 28 16 30.9101 16 34.5C 16 36.5717 16.8947 38.7501 18.2883 40.2221C 18.7084 40.6658 19 41.2322 19 41.8432L 19 42C 19 43.1046 18.1046 44 17 44L 16 44C 12.6863 44 10 46.6863 10 50L 10 54C 10 55.1046 15.3726 56 22 56C 28.6274 56 34 55.1046 34 54L 34 50C 34 46.6863 31.3137 44 28 44L 27 44C 25.8954 44 25 43.1046 25 42L 25 41.8432ZM 273.000006 41.8432C 273.000006 41.2322 272.708411 40.665802 272.288306 40.222099C 270.89472 38.750099 270.000006 36.571701 270.000006 34.5C 270.000006 30.910102 272.686316 28 276.000006 28C 279.313696 28 282.000006 30.910102 282.000006 34.5C 282.000006 36.571701 281.105292 38.750099 279.711706 40.222099C 279.291601 40.665802 279.000006 41.2322 279.000006 41.8432L 279.000006 42C 279.000006 43.104599 279.895392 44 281.000006 44L 282.000006 44C 285.313696 44 288.000006 46.686302 288.000006 50L 288.000006 54C 288.000006 55.104599 282.627417 56 276.000006 56C 269.372595 56 264.000006 55.104599 264.000006 54L 264.000006 50C 264.000006 46.686302 266.686316 44 270.000006 44L 271.000006 44C 272.10462 44 273.000006 43.104599 273.000006 42L 273.000006 41.8432ZM 67.999998 33.8432C 67.999998 33.2322 68.291598 32.6658 68.711698 32.2221C 70.105298 30.7501 70.999998 28.5717 70.999998 26.5C 70.999998 22.9101 68.313698 20 64.999998 20C 61.686298 20 58.999998 22.9101 58.999998 26.5C 58.999998 28.5717 59.894698 30.7501 61.288298 32.2221C 61.708398 32.6658 61.999998 33.2322 61.999998 33.8432L 61.999998 34C 61.999998 35.1046 61.104598 36 59.999998 36L 58.999998 36C 55.686298 36 52.999998 38.6863 52.999998 42L 52.999998 46C 52.999998 47.1046 58.372598 48 64.999998 48C 71.627398 48 76.999998 47.1046 76.999998 46L 76.999998 42C 76.999998 38.6863 74.313698 36 70.999998 36L 69.999998 36C 68.895398 36 67.999998 35.1046 67.999998 34L 67.999998 33.8432ZM 96.999998 29.8432C 96.999998 29.2322 97.291598 28.6658 97.711698 28.2221C 99.105298 26.7501 99.999998 24.5717 99.999998 22.5C 99.999998 18.9101 97.313698 16 93.999998 16C 90.686298 16 87.999998 18.9101 87.999998 22.5C 87.999998 24.5717 88.894698 26.7501 90.288298 28.2221C 90.708398 28.6658 90.999998 29.2322 90.999998 29.8432L 90.999998 30C 90.999998 31.1046 90.104598 32 88.999998 32L 87.999998 32C 84.686298 32 81.999998 34.6863 81.999998 38L 81.999998 42C 81.999998 43.1046 87.372598 44 93.999998 44C 100.627398 44 105.999998 43.1046 105.999998 42L 105.999998 38C 105.999998 34.6863 103.313698 32 99.999998 32L 98.999998 32C 97.895398 32 96.999998 31.1046 96.999998 30L 96.999998 29.8432ZM 207.000006 29.8432C 207.000006 29.2322 207.291606 28.6658 207.711706 28.2221C 209.105306 26.7501 210.000006 24.5717 210.000006 22.5C 210.000006 18.9101 207.313706 16 204.000006 16C 200.686306 16 198.000006 18.9101 198.000006 22.5C 198.000006 24.5717 198.894706 26.7501 200.288306 28.2221C 200.708406 28.6658 201.000006 29.2322 201.000006 29.8432L 201.000006 30C 201.000006 31.1046 200.104606 32 199.000006 32L 198.000006 32C 194.686306 32 192.000006 34.6863 192.000006 38L 192.000006 42C 192.000006 43.1046 197.372606 44 204.000006 44C 210.627406 44 216.000006 43.1046 216.000006 42L 216.000006 38C 216.000006 34.6863 213.313706 32 210.000006 32L 209.000006 32C 207.895406 32 207.000006 31.1046 207.000006 30L 207.000006 29.8432ZM 152.000006 23.8432C 152.000006 23.2322 152.291606 22.6658 152.711706 22.2221C 154.105306 20.7501 155.000006 18.5717 155.000006 16.5C 155.000006 12.9101 152.313706 10 149.000006 10C 145.686306 10 143.000006 12.9101 143.000006 16.5C 143.000006 18.5717 143.894706 20.7501 145.288306 22.2221C 145.708406 22.6658 146.000006 23.2322 146.000006 23.8432L 146.000006 24C 146.000006 25.1046 145.104606 26 144.000006 26L 143.000006 26C 139.686306 26 137.000006 28.6863 137.000006 32L 137.000006 36C 137.000006 37.1046 142.372606 38 149.000006 38C 155.627406 38 161.000006 37.1046 161.000006 36L 161.000006 32C 161.000006 28.6863 158.313706 26 155.000006 26L 154.000006 26C 152.895406 26 152.000006 25.1046 152.000006 24L 152.000006 23.8432ZM 126.000006 34.8432C 126.000006 34.2322 126.291606 33.6658 126.711706 33.2221C 128.105306 31.7501 129.000006 29.5717 129.000006 27.5C 129.000006 23.9101 126.313706 21 123.000006 21C 119.686306 21 117.000006 23.9101 117.000006 27.5C 117.000006 29.5717 117.894706 31.7501 119.288306 33.2221C 119.708406 33.6658 120.000006 34.2322 120.000006 34.8432L 120.000006 35C 120.000006 36.1046 119.104606 37 118.000006 37L 117.000006 37C 113.686306 37 111.000006 39.6863 111.000006 43L 111.000006 47C 111.000006 48.1046 116.372606 49 123.000006 49C 129.627406 49 135.000006 48.1046 135.000006 47L 135.000006 43C 135.000006 39.6863 132.313706 37 129.000006 37L 128.000006 37C 126.895406 37 126.000006 36.1046 126.000006 35L 126.000006 34.8432ZM 178.000006 34.8432C 178.000006 34.2322 178.291606 33.6658 178.711706 33.2221C 180.105306 31.7501 181.000006 29.5717 181.000006 27.5C 181.000006 23.9101 178.313706 21 175.000006 21C 171.686306 21 169.000006 23.9101 169.000006 27.5C 169.000006 29.5717 169.894706 31.7501 171.288306 33.2221C 171.708406 33.6658 172.000006 34.2322 172.000006 34.8432L 172.000006 35C 172.000006 36.1046 171.104606 37 170.000006 37L 169.000006 37C 165.686306 37 163.000006 39.6863 163.000006 43L 163.000006 47C 163.000006 48.1046 168.372606 49 175.000006 49C 181.627406 49 187.000006 48.1046 187.000006 47L 187.000006 43C 187.000006 39.6863 184.313706 37 181.000006 37L 180.000006 37C 178.895406 37 178.000006 36.1046 178.000006 35L 178.000006 34.8432ZM 230.000006 33.8432C 230.000006 33.2322 229.708411 32.665802 229.288306 32.222099C 227.894705 30.750099 227.000006 28.571701 227.000006 26.5C 227.000006 22.910102 229.686301 20 233.000006 20C 236.313711 20 239.000006 22.910102 239.000006 26.5C 239.000006 28.571701 238.105292 30.750099 236.711706 32.222099C 236.291601 32.665802 236.000006 33.2322 236.000006 33.8432L 236.000006 34C 236.000006 35.104599 236.895407 36 238.000006 36L 239.000006 36C 242.313696 36 245.000006 38.686302 245.000006 42L 245.000006 46C 245.000006 47.104599 239.627417 48 233.000006 48C 226.37261 48 221.000006 47.104599 221.000006 46L 221.000006 42C 221.000006 38.686302 223.686301 36 227.000006 36L 228.000006 36C 229.104605 36 230.000006 35.104599 230.000006 34L 230.000006 33.8432ZM 115.999998 67.8432C 115.999998 67.2322 116.291598 66.6658 116.711698 66.2221C 118.105298 64.7501 118.999998 62.5717 118.999998 60.5C 118.999998 56.9101 116.313698 54 112.999998 54C 109.686298 54 106.999998 56.9101 106.999998 60.5C 106.999998 62.5717 107.894698 64.7501 109.288298 66.2221C 109.708398 66.6658 109.999998 67.2322 109.999998 67.8432L 109.999998 68C 109.999998 69.1046 109.104598 70 107.999998 70L 106.999998 70C 103.686298 70 100.999998 72.6863 100.999998 76L 100.999998 80C 100.999998 81.1046 106.372598 82 112.999998 82C 119.627398 82 124.999998 81.1046 124.999998 80L 124.999998 76C 124.999998 72.6863 122.313698 70 118.999998 70L 117.999998 70C 116.895398 70 115.999998 69.1046 115.999998 68L 115.999998 67.8432ZM 188.000006 67.8432C 188.000006 67.2322 188.291606 66.6658 188.711706 66.2221C 190.105306 64.7501 191.000006 62.5717 191.000006 60.5C 191.000006 56.9101 188.313706 54 185.000006 54C 181.686306 54 179.000006 56.9101 179.000006 60.5C 179.000006 62.5717 179.894706 64.7501 181.288306 66.2221C 181.708406 66.6658 182.000006 67.2322 182.000006 67.8432L 182.000006 68C 182.000006 69.1046 181.104606 70 180.000006 70L 179.000006 70C 175.686306 70 173.000006 72.6863 173.000006 76L 173.000006 80C 173.000006 81.1046 178.372606 82 185.000006 82C 191.627406 82 197.000006 81.1046 197.000006 80L 197.000006 76C 197.000006 72.6863 194.313706 70 191.000006 70L 190.000006 70C 188.895406 70 188.000006 69.1046 188.000006 68L 188.000006 67.8432ZM 79.999998 64.8432C 79.999998 64.2322 80.291598 63.6658 80.711698 63.2221C 82.105298 61.7501 82.999998 59.5717 82.999998 57.5C 82.999998 53.9101 80.313698 51 76.999998 51C 73.686298 51 70.999998 53.9101 70.999998 57.5C 70.999998 59.5717 71.894698 61.7501 73.288298 63.2221C 73.708398 63.6658 73.999998 64.2322 73.999998 64.8432L 73.999998 65C 73.999998 66.1046 73.104598 67 71.999998 67L 70.999998 67C 67.686298 67 64.999998 69.6863 64.999998 73L 64.999998 77C 64.999998 78.1046 70.372598 79 76.999998 79C 83.627398 79 88.999998 78.1046 88.999998 77L 88.999998 73C 88.999998 69.6863 86.313698 67 82.999998 67L 81.999998 67C 80.895398 67 79.999998 66.1046 79.999998 65L 79.999998 64.8432ZM 218.000006 64.8432C 218.000006 64.232193 217.708411 63.665802 217.288306 63.222106C 215.894705 61.750106 215.000006 59.571701 215.000006 57.5C 215.000006 53.910095 217.686301 51 221.000006 51C 224.313711 51 227.000006 53.910095 227.000006 57.5C 227.000006 59.571701 226.105307 61.750106 224.711706 63.222106C 224.291601 63.665802 224.000006 64.232193 224.000006 64.8432L 224.000006 65C 224.000006 66.104599 224.895407 67 226.000006 67L 227.000006 67C 230.313711 67 233.000006 69.686294 233.000006 73L 233.000006 77C 233.000006 78.104599 227.627402 79 221.000006 79C 214.37261 79 209.000006 78.104599 209.000006 77L 209.000006 73C 209.000006 69.686294 211.686301 67 215.000006 67L 216.000006 67C 217.104605 67 218.000006 66.104599 218.000006 65L 218.000006 64.8432ZM 146.000006 61.8432C 146.000006 61.232193 145.708411 60.665802 145.288306 60.222106C 143.894705 58.750106 143.000006 56.571701 143.000006 54.5C 143.000006 50.910095 145.686301 48 149.000006 48C 152.313711 48 155.000006 50.910095 155.000006 54.5C 155.000006 56.571701 154.105307 58.750106 152.711706 60.222106C 152.291601 60.665802 152.000006 61.232193 152.000006 61.8432L 152.000006 62C 152.000006 63.104599 152.895407 64 154.000006 64L 155.000006 64C 158.313711 64 161.000006 66.686294 161.000006 70L 161.000006 74C 161.000006 75.104599 155.627402 76 149.000006 76C 142.37261 76 137.000006 75.104599 137.000006 74L 137.000006 70C 137.000006 66.686294 139.686301 64 143.000006 64L 144.000006 64C 145.104605 64 146.000006 63.104599 146.000006 62L 146.000006 61.8432ZM 52.999998 250.8432C 52.999998 250.2322 53.291598 249.6658 53.711698 249.2221C 55.105298 247.7501 55.999998 245.5717 55.999998 243.5C 55.999998 239.9101 53.313698 237 49.999998 237C 46.686298 237 43.999998 239.9101 43.999998 243.5C 43.999998 245.5717 44.894698 247.7501 46.288298 249.2221C 46.708398 249.6658 46.999998 250.2322 46.999998 250.8432L 46.999998 251C 46.999998 252.1046 46.104598 253 44.999998 253L 43.999998 253C 40.686298 253 37.999998 255.6863 37.999998 259L 37.999998 263C 37.999998 264.1046 43.372598 265 49.999998 265C 56.627398 265 61.999998 264.1046 61.999998 263L 61.999998 259C 61.999998 255.6863 59.313698 253 55.999998 253L 54.999998 253C 53.895398 253 52.999998 252.1046 52.999998 251L 52.999998 250.8432ZM 245.000006 250.8432C 245.000006 250.232208 244.708411 249.665802 244.288306 249.222106C 242.89472 247.750091 242.000006 245.571685 242.000006 243.5C 242.000006 239.910095 244.686316 237 248.000006 237C 251.313696 237 254.000006 239.910095 254.000006 243.5C 254.000006 245.571685 253.105292 247.750091 251.711706 249.222106C 251.291601 249.665802 251.000006 250.232208 251.000006 250.8432L 251.000006 251C 251.000006 252.104614 251.895392 253 253.000006 253L 254.000006 253C 257.313696 253 260.000006 255.686309 260.000006 259L 260.000006 263C 260.000006 264.104614 254.627417 265 248.000006 265C 241.372595 265 236.000006 264.104614 236.000006 263L 236.000006 259C 236.000006 255.686309 238.686316 253 242.000006 253L 243.000006 253C 244.10462 253 245.000006 252.104614 245.000006 251L 245.000006 250.8432ZM 25 233.8432C 25 233.2322 25.2916 232.6658 25.7117 232.2221C 27.1053 230.7501 28 228.5717 28 226.5C 28 222.9101 25.3137 220 22 220C 18.6863 220 16 222.9101 16 226.5C 16 228.5717 16.8947 230.7501 18.2883 232.2221C 18.7084 232.6658 19 233.2322 19 233.8432L 19 234C 19 235.1046 18.1046 236 17 236L 16 236C 12.6863 236 10 238.6863 10 242L 10 246C 10 247.1046 15.3726 248 22 248C 28.6274 248 34 247.1046 34 246L 34 242C 34 238.6863 31.3137 236 28 236L 27 236C 25.8954 236 25 235.1046 25 234L 25 233.8432ZM 273.000006 233.8432C 273.000006 233.232208 272.708411 232.665802 272.288306 232.222106C 270.89472 230.750091 270.000006 228.571685 270.000006 226.5C 270.000006 222.910095 272.686316 220 276.000006 220C 279.313696 220 282.000006 222.910095 282.000006 226.5C 282.000006 228.571685 281.105292 230.750091 279.711706 232.222106C 279.291601 232.665802 279.000006 233.232208 279.000006 233.8432L 279.000006 234C 279.000006 235.104614 279.895392 236 281.000006 236L 282.000006 236C 285.313696 236 288.000006 238.686309 288.000006 242L 288.000006 246C 288.000006 247.104614 282.627417 248 276.000006 248C 269.372595 248 264.000006 247.104614 264.000006 246L 264.000006 242C 264.000006 238.686309 266.686316 236 270.000006 236L 271.000006 236C 272.10462 236 273.000006 235.104614 273.000006 234L 273.000006 233.8432ZM 73.999998 223.8432C 73.999998 223.2322 74.291598 222.6658 74.711698 222.2221C 76.105298 220.7501 76.999998 218.5717 76.999998 216.5C 76.999998 212.9101 74.313698 210 70.999998 210C 67.686298 210 64.999998 212.9101 64.999998 216.5C 64.999998 218.5717 65.894698 220.7501 67.288298 222.2221C 67.708398 222.6658 67.999998 223.2322 67.999998 223.8432L 67.999998 224C 67.999998 225.1046 67.104598 226 65.999998 226L 64.999998 226C 61.686298 226 58.999998 228.6863 58.999998 232L 58.999998 236C 58.999998 237.1046 64.372598 238 70.999998 238C 77.627398 238 82.999998 237.1046 82.999998 236L 82.999998 232C 82.999998 228.6863 80.313698 226 76.999998 226L 75.999998 226C 74.895398 226 73.999998 225.1046 73.999998 224L 73.999998 223.8432ZM 224.000006 223.8432C 224.000006 223.232208 223.708411 222.665802 223.288306 222.222106C 221.894705 220.750091 221.000006 218.571685 221.000006 216.5C 221.000006 212.910095 223.686301 210 227.000006 210C 230.313711 210 233.000006 212.910095 233.000006 216.5C 233.000006 218.571685 232.105307 220.750091 230.711706 222.222106C 230.291601 222.665802 230.000006 223.232208 230.000006 223.8432L 230.000006 224C 230.000006 225.104614 230.895407 226 232.000006 226L 233.000006 226C 236.313711 226 239.000006 228.686309 239.000006 232L 239.000006 236C 239.000006 237.104614 233.627402 238 227.000006 238C 220.37261 238 215.000006 237.104614 215.000006 236L 215.000006 232C 215.000006 228.686309 217.686301 226 221.000006 226L 222.000006 226C 223.104605 226 224.000006 225.104614 224.000006 224L 224.000006 223.8432ZM 91.999998 259.8432C 91.999998 259.2322 92.291598 258.6658 92.711698 258.2221C 94.105298 256.7501 94.999998 254.5717 94.999998 252.5C 94.999998 248.9101 92.313698 246 88.999998 246C 85.686298 246 82.999998 248.9101 82.999998 252.5C 82.999998 254.5717 83.894698 256.7501 85.288298 258.2221C 85.708398 258.6658 85.999998 259.2322 85.999998 259.8432L 85.999998 260C 85.999998 261.1046 85.104598 262 83.999998 262L 82.999998 262C 79.686298 262 76.999998 264.6863 76.999998 268L 76.999998 272C 76.999998 273.1046 82.372598 274 88.999998 274C 95.627398 274 100.999998 273.1046 100.999998 272L 100.999998 268C 100.999998 264.6863 98.313698 262 94.999998 262L 93.999998 262C 92.895398 262 91.999998 261.1046 91.999998 260L 91.999998 259.8432ZM 206.000006 259.8432C 206.000006 259.232208 205.708411 258.665802 205.288306 258.222106C 203.894705 256.750091 203.000006 254.571685 203.000006 252.5C 203.000006 248.910095 205.686301 246 209.000006 246C 212.313711 246 215.000006 248.910095 215.000006 252.5C 215.000006 254.571685 214.105307 256.750091 212.711706 258.222106C 212.291601 258.665802 212.000006 259.232208 212.000006 259.8432L 212.000006 260C 212.000006 261.104614 212.895407 262 214.000006 262L 215.000006 262C 218.313711 262 221.000006 264.686309 221.000006 268L 221.000006 272C 221.000006 273.104614 215.627402 274 209.000006 274C 202.37261 274 197.000006 273.104614 197.000006 272L 197.000006 268C 197.000006 264.686309 199.686301 262 203.000006 262L 204.000006 262C 205.104605 262 206.000006 261.104614 206.000006 260L 206.000006 259.8432ZM 146.000006 261.8432C 146.000006 261.232208 145.708411 260.665802 145.288306 260.222106C 143.894705 258.750091 143.000006 256.571685 143.000006 254.5C 143.000006 250.910095 145.686301 248 149.000006 248C 152.313711 248 155.000006 250.910095 155.000006 254.5C 155.000006 256.571685 154.105307 258.750091 152.711706 260.222106C 152.291601 260.665802 152.000006 261.232208 152.000006 261.8432L 152.000006 262C 152.000006 263.104614 152.895407 264 154.000006 264L 155.000006 264C 158.313711 264 161.000006 266.686309 161.000006 270L 161.000006 274C 161.000006 275.104614 155.627402 276 149.000006 276C 142.37261 276 137.000006 275.104614 137.000006 274L 137.000006 270C 137.000006 266.686309 139.686301 264 143.000006 264L 144.000006 264C 145.104605 264 146.000006 263.104614 146.000006 262L 146.000006 261.8432ZM 34.999998 339.8432C 34.999998 339.2322 35.291598 338.6658 35.711698 338.2221C 37.105298 336.7501 37.999998 334.5717 37.999998 332.5C 37.999998 328.9101 35.313698 326 31.999998 326C 28.686298 326 25.999998 328.9101 25.999998 332.5C 25.999998 334.5717 26.894698 336.7501 28.288298 338.2221C 28.708398 338.6658 28.999998 339.2322 28.999998 339.8432L 28.999998 340C 28.999998 341.1046 28.104598 342 26.999998 342L 25.999998 342C 22.686298 342 19.999998 344.6863 19.999998 348L 19.999998 352C 19.999998 353.1046 25.372598 354 31.999998 354C 38.627398 354 43.999998 353.1046 43.999998 352L 43.999998 348C 43.999998 344.6863 41.313698 342 37.999998 342L 36.999998 342C 35.895398 342 34.999998 341.1046 34.999998 340L 34.999998 339.8432ZM 263.000006 339.8432C 263.000006 339.232208 262.708411 338.665802 262.288306 338.222106C 260.89472 336.750091 260.000006 334.571685 260.000006 332.5C 260.000006 328.910095 262.686316 326 266.000006 326C 269.313696 326 272.000006 328.910095 272.000006 332.5C 272.000006 334.571685 271.105292 336.750091 269.711706 338.222106C 269.291601 338.665802 269.000006 339.232208 269.000006 339.8432L 269.000006 340C 269.000006 341.104614 269.895392 342 271.000006 342L 272.000006 342C 275.313696 342 278.000006 344.686309 278.000006 348L 278.000006 352C 278.000006 353.104614 272.627417 354 266.000006 354C 259.372595 354 254.000006 353.104614 254.000006 352L 254.000006 348C 254.000006 344.686309 256.686316 342 260.000006 342L 261.000006 342C 262.10462 342 263.000006 341.104614 263.000006 340L 263.000006 339.8432ZM 73.999998 319.8432C 73.999998 319.2322 74.291598 318.6658 74.711698 318.2221C 76.105298 316.7501 76.999998 314.5717 76.999998 312.5C 76.999998 308.9101 74.313698 306 70.999998 306C 67.686298 306 64.999998 308.9101 64.999998 312.5C 64.999998 314.5717 65.894698 316.7501 67.288298 318.2221C 67.708398 318.6658 67.999998 319.2322 67.999998 319.8432L 67.999998 320C 67.999998 321.1046 67.104598 322 65.999998 322L 64.999998 322C 61.686298 322 58.999998 324.6863 58.999998 328L 58.999998 332C 58.999998 333.1046 64.372598 334 70.999998 334C 77.627398 334 82.999998 333.1046 82.999998 332L 82.999998 328C 82.999998 324.6863 80.313698 322 76.999998 322L 75.999998 322C 74.895398 322 73.999998 321.1046 73.999998 320L 73.999998 319.8432ZM 224.000006 319.8432C 224.000006 319.232208 223.708411 318.665802 223.288306 318.222106C 221.894705 316.750091 221.000006 314.571685 221.000006 312.5C 221.000006 308.910095 223.686301 306 227.000006 306C 230.313711 306 233.000006 308.910095 233.000006 312.5C 233.000006 314.571685 232.105307 316.750091 230.711706 318.222106C 230.291601 318.665802 230.000006 319.232208 230.000006 319.8432L 230.000006 320C 230.000006 321.104614 230.895407 322 232.000006 322L 233.000006 322C 236.313711 322 239.000006 324.686309 239.000006 328L 239.000006 332C 239.000006 333.104614 233.627402 334 227.000006 334C 220.37261 334 215.000006 333.104614 215.000006 332L 215.000006 328C 215.000006 324.686309 217.686301 322 221.000006 322L 222.000006 322C 223.104605 322 224.000006 321.104614 224.000006 320L 224.000006 319.8432ZM 91.999998 355.8432C 91.999998 355.2322 92.291598 354.6658 92.711698 354.2221C 94.105298 352.7501 94.999998 350.5717 94.999998 348.5C 94.999998 344.9101 92.313698 342 88.999998 342C 85.686298 342 82.999998 344.9101 82.999998 348.5C 82.999998 350.5717 83.894698 352.7501 85.288298 354.2221C 85.708398 354.6658 85.999998 355.2322 85.999998 355.8432L 85.999998 356C 85.999998 357.1046 85.104598 358 83.999998 358L 82.999998 358C 79.686298 358 76.999998 360.6863 76.999998 364L 76.999998 368C 76.999998 369.1046 82.372598 370 88.999998 370C 95.627398 370 100.999998 369.1046 100.999998 368L 100.999998 364C 100.999998 360.6863 98.313698 358 94.999998 358L 93.999998 358C 92.895398 358 91.999998 357.1046 91.999998 356L 91.999998 355.8432ZM 206.000006 355.8432C 206.000006 355.232208 205.708411 354.665802 205.288306 354.222106C 203.894705 352.750091 203.000006 350.571685 203.000006 348.5C 203.000006 344.910095 205.686301 342 209.000006 342C 212.313711 342 215.000006 344.910095 215.000006 348.5C 215.000006 350.571685 214.105307 352.750091 212.711706 354.222106C 212.291601 354.665802 212.000006 355.232208 212.000006 355.8432L 212.000006 356C 212.000006 357.104614 212.895407 358 214.000006 358L 215.000006 358C 218.313711 358 221.000006 360.686309 221.000006 364L 221.000006 368C 221.000006 369.104614 215.627402 370 209.000006 370C 202.37261 370 197.000006 369.104614 197.000006 368L 197.000006 364C 197.000006 360.686309 199.686301 358 203.000006 358L 204.000006 358C 205.104605 358 206.000006 357.104614 206.000006 356L 206.000006 355.8432ZM 146.000006 357.8432C 146.000006 357.232208 145.708411 356.665802 145.288306 356.222106C 143.894705 354.750091 143.000006 352.571685 143.000006 350.5C 143.000006 346.910095 145.686301 344 149.000006 344C 152.313711 344 155.000006 346.910095 155.000006 350.5C 155.000006 352.571685 154.105307 354.750091 152.711706 356.222106C 152.291601 356.665802 152.000006 357.232208 152.000006 357.8432L 152.000006 358C 152.000006 359.104614 152.895407 360 154.000006 360L 155.000006 360C 158.313711 360 161.000006 362.686309 161.000006 366L 161.000006 370C 161.000006 371.104614 155.627402 372 149.000006 372C 142.37261 372 137.000006 371.104614 137.000006 370L 137.000006 366C 137.000006 362.686309 139.686301 360 143.000006 360L 144.000006 360C 145.104605 360 146.000006 359.104614 146.000006 358L 146.000006 357.8432ZM 31.999998 428.8432C 31.999998 428.2322 32.291598 427.6658 32.711698 427.2221C 34.105298 425.7501 34.999998 423.5717 34.999998 421.5C 34.999998 417.9101 32.313698 415 28.999998 415C 25.686298 415 22.999998 417.9101 22.999998 421.5C 22.999998 423.5717 23.894698 425.7501 25.288298 427.2221C 25.708398 427.6658 25.999998 428.2322 25.999998 428.8432L 25.999998 429C 25.999998 430.1046 25.104598 431 23.999998 431L 22.999998 431C 19.686298 431 16.999998 433.6863 16.999998 437L 16.999998 441C 16.999998 442.1046 22.372598 443 28.999998 443C 35.627398 443 40.999998 442.1046 40.999998 441L 40.999998 437C 40.999998 433.6863 38.313698 431 34.999998 431L 33.999998 431C 32.895398 431 31.999998 430.1046 31.999998 429L 31.999998 428.8432ZM 266.000006 428.8432C 266.000006 428.232208 265.708411 427.665802 265.288306 427.222106C 263.89472 425.750091 263.000006 423.571685 263.000006 421.5C 263.000006 417.910095 265.686316 415 269.000006 415C 272.313696 415 275.000006 417.910095 275.000006 421.5C 275.000006 423.571685 274.105292 425.750091 272.711706 427.222106C 272.291601 427.665802 272.000006 428.232208 272.000006 428.8432L 272.000006 429C 272.000006 430.104614 272.895392 431 274.000006 431L 275.000006 431C 278.313696 431 281.000006 433.686309 281.000006 436.999969L 281.000006 440.999969C 281.000006 442.104583 275.627417 442.999969 269.000006 442.999969C 262.372595 442.999969 257.000006 442.104583 257.000006 440.999969L 257.000006 436.999969C 257.000006 433.686309 259.686316 431 263.000006 431L 264.000006 431C 265.10462 431 266.000006 430.104614 266.000006 429L 266.000006 428.8432ZM 79.999998 445.8432C 79.999998 445.2322 80.291598 444.6658 80.711698 444.2221C 82.105298 442.7501 82.999998 440.5717 82.999998 438.5C 82.999998 434.9101 80.313698 432 76.999998 432C 73.686298 432 70.999998 434.9101 70.999998 438.5C 70.999998 440.5717 71.894698 442.7501 73.288298 444.2221C 73.708398 444.6658 73.999998 445.2322 73.999998 445.8432L 73.999998 446C 73.999998 447.1046 73.104598 448 71.999998 448L 70.999998 448C 67.686298 448 64.999998 450.6863 64.999998 454L 64.999998 458C 64.999998 459.1046 70.372598 460 76.999998 460C 83.627398 460 88.999998 459.1046 88.999998 458L 88.999998 454C 88.999998 450.6863 86.313698 448 82.999998 448L 81.999998 448C 80.895398 448 79.999998 447.1046 79.999998 446L 79.999998 445.8432ZM 218.000006 445.84317C 218.000006 445.232208 217.708411 444.665802 217.288306 444.222076C 215.894705 442.750091 215.000006 440.571685 215.000006 438.499969C 215.000006 434.910125 217.686301 432 221.000006 432C 224.313711 432 227.000006 434.910125 227.000006 438.499969C 227.000006 440.571685 226.105307 442.750091 224.711706 444.222076C 224.291601 444.665802 224.000006 445.232208 224.000006 445.84317L 224.000006 445.999969C 224.000006 447.104583 224.895407 447.999969 226.000006 447.999969L 227.000006 447.999969C 230.313711 447.999969 233.000006 450.686309 233.000006 453.999969L 233.000006 457.999969C 233.000006 459.104583 227.627402 459.999969 221.000006 459.999969C 214.37261 459.999969 209.000006 459.104583 209.000006 457.999969L 209.000006 453.999969C 209.000006 450.686309 211.686301 447.999969 215.000006 447.999969L 216.000006 447.999969C 217.104605 447.999969 218.000006 447.104583 218.000006 445.999969L 218.000006 445.84317ZM 146.000006 453.843231C 146.000006 453.232208 145.708411 452.665802 145.288306 452.222137C 143.894705 450.750152 143.000006 448.571746 143.000006 446.50003C 143.000006 442.910125 145.686301 440.00003 149.000006 440.00003C 152.313711 440.00003 155.000006 442.910125 155.000006 446.50003C 155.000006 448.571746 154.105307 450.750152 152.711706 452.222137C 152.291601 452.665802 152.000006 453.232208 152.000006 453.843231L 152.000006 454.00003C 152.000006 455.104644 152.895407 456.00003 154.000006 456.00003L 155.000006 456.00003C 158.313711 456.00003 161.000006 458.686309 161.000006 462.00003L 161.000006 466.00003C 161.000006 467.104644 155.627402 468.00003 149.000006 468.00003C 142.37261 468.00003 137.000006 467.104644 137.000006 466.00003L 137.000006 462.00003C 137.000006 458.686309 139.686301 456.00003 143.000006 456.00003L 144.000006 456.00003C 145.104605 456.00003 146.000006 455.104644 146.000006 454.00003L 146.000006 453.843231Z"></path></g></g></g><g id="g-root-tx_streamli_qtf2aw3d6yvd-fill" data-item-order="0" transform="translate(158.99996948242188, 39)"><g id="tx_streamli_qtf2aw3d6yvd-fill" stroke="none" fill="#f4f4f4"><g><text style="font: bold 20px Roboto, sans-serif; white-space: pre;" font-weight="bold" font-size="20px" font-family="Roboto, sans-serif"><tspan x="13" y="34" dominant-baseline="ideographic">Streamlined Candidate-Job Matching Process</tspan></text></g></g></g><g id="g-root-sear_1lua5wo3d5iir-fill" data-item-order="0" transform="translate(374.9999694824219, 135)"></g><g id="g-root-tx_profilee_18kp2so3d6wi7-fill" data-item-order="0" transform="translate(435.1122741699219, 147)"><g id="tx_profilee_18kp2so3d6wi7-fill" stroke="none" fill="#e5f8ff"><g><text style="font: 20px Roboto, sans-serif; white-space: pre;" font-size="20px" font-family="Roboto, sans-serif"><tspan x="12" y="34" dominant-baseline="ideographic">Profile Evaluation</tspan></text></g></g></g><g id="g-root-sear_ddl8bs3d5jpe-fill" data-item-order="0" transform="translate(374.9999694824219, 231)"></g><g id="g-root-tx_joblisti_1ur64bs3d6xac-fill" data-item-order="0" transform="translate(435.1122741699219, 243)"><g id="tx_joblisti_1ur64bs3d6xac-fill" stroke="none" fill="#dffff0"><g><text style="font: 20px Roboto, sans-serif; white-space: pre;" font-size="20px" font-family="Roboto, sans-serif"><tspan x="12" y="34" dominant-baseline="ideographic">Job Listing Upload</tspan></text></g></g></g><g id="g-root-star_zqxht43d44qr-fill" data-item-order="0" transform="translate(374.9999694824219, 327)"></g><g id="g-root-tx_matchsco_qs644o3d6wp5-fill" data-item-order="0" transform="translate(435.1122741699219, 339)"><g id="tx_matchsco_qs644o3d6wp5-fill" stroke="none" fill="#f2ffd7"><g><text style="font: 20px Roboto, sans-serif; white-space: pre;" font-size="20px" font-family="Roboto, sans-serif"><tspan x="12" y="34" dominant-baseline="ideographic">Match Scoring Report</tspan></text></g></g></g><g id="g-root-chec_hxryw83dmeq6-fill" data-item-order="0" transform="translate(374.9999694824219, 423)"></g><g id="g-root-tx_qualific_1upap2g3d6y9x-fill" data-item-order="0" transform="translate(435.1122741699219, 435)"><g id="tx_qualific_1upap2g3d6y9x-fill" stroke="none" fill="#fffbd5"><g><text style="font: 20px Roboto, sans-serif; white-space: pre;" font-size="20px" font-family="Roboto, sans-serif"><tspan x="12" y="34" dominant-baseline="ideographic">Qualification Threshold</tspan></text></g></g></g><g id="g-root-2_18fp6y03d8dfk-fill" data-item-order="0" transform="translate(374.9999694824219, 519)"></g><g id="g-root-tx_candidat_mah6qw3d6ygz-fill" data-item-order="0" transform="translate(435.1122741699219, 531)"><g id="tx_candidat_mah6qw3d6ygz-fill" stroke="none" fill="#fff0e2"><g><text style="font: 20px Roboto, sans-serif; white-space: pre;" font-size="20px" font-family="Roboto, sans-serif"><tspan x="12" y="34" dominant-baseline="ideographic">Candidate Notification</tspan></text></g></g></g><g id="g-root--1.cu_sy_dkgd483d6ygx-stroke" data-item-order="-178516" transform="translate(74.99996948242188, 192.69580078125)"><g id="-1.cu_sy_dkgd483d6ygx-stroke" fill="none" stroke-linecap="round" stroke-linejoin="round" stroke-miterlimit="4" stroke="#2c2c2c" stroke-width="2"><g><path d="M 45.999985 10C 64.470185 11.4847 84.738385 12.3046 105.999985 12.3046C 127.261585 12.3046 147.529785 11.4847 165.999985 10L 165.999985 65.3047C 165.999985 71.6419 139.137085 76.7791 105.999985 76.7791C 72.862885 76.7791 45.999984 71.6419 45.999985 65.3047L 45.999985 10ZM 45.999977 106.024903C 64.470177 107.509603 84.738377 108.329503 105.999977 108.329503C 127.261577 108.329503 147.529777 107.509603 165.999977 106.024903L 165.999977 161.329603C 165.999977 167.666803 139.137077 172.804003 105.999977 172.804003C 72.862877 172.804003 45.999977 167.666803 45.999977 161.329603L 45.999977 106.024903ZM 45.999992 202.049805C 64.470192 203.534505 84.738392 204.354405 105.999992 204.354405C 127.261592 204.354405 147.529792 203.534505 165.999992 202.049805L 165.999992 257.354505C 165.999992 263.691705 139.137092 268.828905 105.999992 268.828905C 72.862892 268.828905 45.999992 263.691705 45.999992 257.354505L 45.999992 202.049805ZM 45.999985 298.074707C 64.470185 299.559407 84.738385 300.379307 105.999985 300.379307C 127.261585 300.379307 147.529785 299.559407 165.999985 298.074707L 165.999985 353.379407C 165.999985 359.716607 139.137085 364.853807 105.999985 364.853807C 72.862885 364.853807 45.999984 359.716607 45.999985 353.379407L 45.999985 298.074707ZM 46 394.304169C 64.4702 395.788869 84.7384 396.608769 106 396.608769C 127.2616 396.608769 147.5298 395.788869 166 394.304169L 166 420.483869L 202 420.483869L 106 492.483869L 10 420.483869L 46 420.483869L 46 394.304169Z"></path></g></g></g><g id="g-root-5.cu_sy_4pftyg3d6w3u-stroke" data-item-order="-178512" transform="translate(15, 509.3046875)"><g id="5.cu_sy_4pftyg3d6w3u-stroke" fill="none" stroke-linecap="round" stroke-linejoin="round" stroke-miterlimit="4" stroke="#2c2c2c" stroke-width="2"><g><path d="M 322.000001 37.7655L 322.000001 49.6254C 322.000001 66.2326 252.156401 79.6954 166.000001 79.6954C 79.843601 79.6954 10 66.2326 10.000001 49.6254L 10.000001 37.7655C 10.000001 25.2565 49.625201 14.5316 106.000001 10L 106.000001 36.7707C 106.000001 43.1078 132.862901 48.2451 166.000001 48.2451C 199.137101 48.2451 226.000001 43.1078 226.000001 36.7707L 226.000001 10C 282.374801 14.5316 322.000001 25.2566 322.000001 37.7655ZM 10 37.695313C 10 54.302513 79.8436 67.765413 166 67.765413C 252.1564 67.765413 322 54.302613 322 37.695313"></path></g></g></g><g id="g-root-4.cu_sy_9mbu03d6ww3-stroke" data-item-order="-178508" transform="translate(15, 413.30462646484375)"><g id="4.cu_sy_9mbu03d6ww3-stroke" fill="none" stroke-linecap="round" stroke-linejoin="round" stroke-miterlimit="4" stroke="#2c2c2c" stroke-width="2"><g><path d="M 322.000001 37.7655L 322.000001 49.6254C 322.000001 66.2326 252.156401 79.6954 166.000001 79.6954C 79.843601 79.6954 10 66.2326 10.000001 49.6254L 10.000001 37.7655C 10.000001 25.2565 49.625201 14.5316 106.000001 10L 106.000001 36.7457C 106.000001 43.0829 132.862901 48.2202 166.000001 48.2202C 199.137101 48.2202 226.000001 43.0829 226.000001 36.7458L 226.000001 10C 282.374801 14.5316 322.000001 25.2566 322.000001 37.7655ZM 10 37.695313C 10 54.302513 79.8436 67.765413 166 67.765413C 252.1564 67.765413 322 54.302613 322 37.695313"></path></g></g></g><g id="g-root-3.cu_sy_1cu9qw83d8ah8-stroke" data-item-order="-178504" transform="translate(15, 317.30462646484375)"><g id="3.cu_sy_1cu9qw83d8ah8-stroke" fill="none" stroke-linecap="round" stroke-linejoin="round" stroke-miterlimit="4" stroke="#2c2c2c" stroke-width="2"><g><path d="M 322.000002 37.7655L 322.000002 49.6254C 322.000002 66.2326 252.156402 79.6954 166.000002 79.6954C 79.843602 79.6954 10.000001 66.2326 10.000002 49.6254L 10.000002 37.7655C 10.000002 25.2565 49.625202 14.5316 106.000002 10L 106.000002 36.7208C 106.000002 43.058 132.862902 48.1953 166.000002 48.1953C 199.137102 48.1953 226.000002 43.058 226.000002 36.7209L 226.000002 10C 282.374802 14.5316 322.000002 25.2566 322.000002 37.7655ZM 10 37.765625C 9.999999 54.372825 79.8436 67.835725 166 67.835725C 252.1564 67.835725 322 54.372925 322 37.765625"></path></g></g></g><g id="g-root-2.cu_sy_zit8iw3d8c25-stroke" data-item-order="-178500" transform="translate(15, 221.30462646484375)"><g id="2.cu_sy_zit8iw3d8c25-stroke" fill="none" stroke-linecap="round" stroke-linejoin="round" stroke-miterlimit="4" stroke="#2c2c2c" stroke-width="2"><g><path d="M 322.000002 37.7655L 322.000002 49.6254C 322.000002 66.2326 252.156402 79.6954 166.000002 79.6954C 79.843602 79.6954 10.000001 66.2326 10.000002 49.6254L 10.000002 37.7655C 10.000002 25.2565 49.625202 14.5316 106.000002 10L 106.000002 36.6959C 106.000002 43.0331 132.862902 48.1704 166.000002 48.1704C 199.137102 48.1704 226.000002 43.0331 226.000002 36.696L 226.000002 10C 282.374802 14.5316 322.000002 25.2566 322.000002 37.7655ZM 10 37.695313C 9.999999 54.302513 79.8436 67.765413 166 67.765413C 252.1564 67.765413 322 54.302613 322 37.695313"></path></g></g></g><g id="g-root-1.cu_sy_v2zqeg3d8cue-stroke" data-item-order="-178496" transform="translate(15, 123)"><g id="1.cu_sy_v2zqeg3d8cue-stroke" fill="none" stroke-linecap="round" stroke-linejoin="round" stroke-miterlimit="4" stroke="#2c2c2c" stroke-width="2"><g><path d="M 166 70.1401C 79.8436 70.1401 10 56.6773 10 40.07C 10 23.4628 79.8436 10 166 10C 252.1564 10 322 23.4628 322 40.0701C 322 56.6773 252.1564 70.1401 166 70.1401ZM 10 51.9299C 10 68.5372 79.8436 82 166 82C 252.1564 82 322 68.5372 322 51.93L 322 40.0701C 322 56.6773 252.1564 70.1401 166 70.1401C 79.8436 70.1401 10 56.6773 10 40.07L 10 51.9299Z"></path></g></g></g><g id="g-root-0.cu_sy_1cvip2g3d8cnb-stroke" data-item-order="-178492" transform="translate(32, 103)"><g id="0.cu_sy_1cvip2g3d8cnb-stroke" fill="none" stroke-linecap="round" stroke-linejoin="round" stroke-miterlimit="4" stroke="#2c2c2c" stroke-width="2"><g><path d="M 47.999998 154.8432C 47.999998 154.2322 48.291598 153.6658 48.711698 153.2221C 50.105298 151.7501 50.999998 149.5717 50.999998 147.5C 50.999998 143.9101 48.313698 141 44.999998 141C 41.686298 141 38.999998 143.9101 38.999998 147.5C 38.999998 149.5717 39.894698 151.7501 41.288298 153.2221C 41.708398 153.6658 41.999998 154.2322 41.999998 154.8432L 41.999998 155C 41.999998 156.1046 41.104598 157 39.999998 157L 38.999998 157C 35.686298 157 32.999998 159.6863 32.999998 163L 32.999998 167C 32.999998 168.1046 38.372598 169 44.999998 169C 51.627398 169 56.999998 168.1046 56.999998 167L 56.999998 163C 56.999998 159.6863 54.313698 157 50.999998 157L 49.999998 157C 48.895398 157 47.999998 156.1046 47.999998 155L 47.999998 154.8432ZM 251.000006 154.8432C 251.000006 154.232193 250.708411 153.665802 250.288306 153.222106C 248.89472 151.750106 248.000006 149.571701 248.000006 147.5C 248.000006 143.910095 250.686316 141 254.000006 141C 257.313696 141 260.000006 143.910095 260.000006 147.5C 260.000006 149.571701 259.105292 151.750106 257.711706 153.222106C 257.291601 153.665802 257.000006 154.232193 257.000006 154.8432L 257.000006 155C 257.000006 156.104599 257.895392 157 259.000006 157L 260.000006 157C 263.313696 157 266.000006 159.686294 266.000006 163L 266.000006 167C 266.000006 168.104599 260.627417 169 254.000006 169C 247.372595 169 242.000006 168.104599 242.000006 167L 242.000006 163C 242.000006 159.686294 244.686316 157 248.000006 157L 249.000006 157C 250.10462 157 251.000006 156.104599 251.000006 155L 251.000006 154.8432ZM 25 137.8432C 25 137.2322 25.2916 136.6658 25.7117 136.2221C 27.1053 134.7501 28 132.5717 28 130.5C 28 126.9101 25.3137 124 22 124C 18.6863 124 16 126.9101 16 130.5C 16 132.5717 16.8947 134.7501 18.2883 136.2221C 18.7084 136.6658 19 137.2322 19 137.8432L 19 138C 19 139.1046 18.1046 140 17 140L 16 140C 12.6863 140 10 142.6863 10 146L 10 150C 10 151.1046 15.3726 152 22 152C 28.6274 152 34 151.1046 34 150L 34 146C 34 142.6863 31.3137 140 28 140L 27 140C 25.8954 140 25 139.1046 25 138L 25 137.8432ZM 273.000006 137.8432C 273.000006 137.232193 272.708411 136.665802 272.288306 136.222106C 270.89472 134.750106 270.000006 132.571701 270.000006 130.5C 270.000006 126.910095 272.686316 124 276.000006 124C 279.313696 124 282.000006 126.910095 282.000006 130.5C 282.000006 132.571701 281.105292 134.750106 279.711706 136.222106C 279.291601 136.665802 279.000006 137.232193 279.000006 137.8432L 279.000006 138C 279.000006 139.104599 279.895392 140 281.000006 140L 282.000006 140C 285.313696 140 288.000006 142.686294 288.000006 146L 288.000006 150C 288.000006 151.104599 282.627417 152 276.000006 152C 269.372595 152 264.000006 151.104599 264.000006 150L 264.000006 146C 264.000006 142.686294 266.686316 140 270.000006 140L 271.000006 140C 272.10462 140 273.000006 139.104599 273.000006 138L 273.000006 137.8432ZM 73.999998 123.8432C 73.999998 123.2322 74.291598 122.6658 74.711698 122.2221C 76.105298 120.7501 76.999998 118.5717 76.999998 116.5C 76.999998 112.9101 74.313698 110 70.999998 110C 67.686298 110 64.999998 112.9101 64.999998 116.5C 64.999998 118.5717 65.894698 120.7501 67.288298 122.2221C 67.708398 122.6658 67.999998 123.2322 67.999998 123.8432L 67.999998 124C 67.999998 125.1046 67.104598 126 65.999998 126L 64.999998 126C 61.686298 126 58.999998 128.6863 58.999998 132L 58.999998 136C 58.999998 137.1046 64.372598 138 70.999998 138C 77.627398 138 82.999998 137.1046 82.999998 136L 82.999998 132C 82.999998 128.6863 80.313698 126 76.999998 126L 75.999998 126C 74.895398 126 73.999998 125.1046 73.999998 124L 73.999998 123.8432ZM 224.000006 123.8432C 224.000006 123.232193 223.708411 122.665802 223.288306 122.222106C 221.894705 120.750106 221.000006 118.571701 221.000006 116.5C 221.000006 112.910095 223.686301 110 227.000006 110C 230.313711 110 233.000006 112.910095 233.000006 116.5C 233.000006 118.571701 232.105307 120.750106 230.711706 122.222106C 230.291601 122.665802 230.000006 123.232193 230.000006 123.8432L 230.000006 124C 230.000006 125.104599 230.895407 126 232.000006 126L 233.000006 126C 236.313711 126 239.000006 128.686294 239.000006 132L 239.000006 136C 239.000006 137.104599 233.627402 138 227.000006 138C 220.37261 138 215.000006 137.104599 215.000006 136L 215.000006 132C 215.000006 128.686294 217.686301 126 221.000006 126L 222.000006 126C 223.104605 126 224.000006 125.104599 224.000006 124L 224.000006 123.8432ZM 115.999998 163.8432C 115.999998 163.2322 116.291598 162.6658 116.711698 162.2221C 118.105298 160.7501 118.999998 158.5717 118.999998 156.5C 118.999998 152.9101 116.313698 150 112.999998 150C 109.686298 150 106.999998 152.9101 106.999998 156.5C 106.999998 158.5717 107.894698 160.7501 109.288298 162.2221C 109.708398 162.6658 109.999998 163.2322 109.999998 163.8432L 109.999998 164C 109.999998 165.1046 109.104598 166 107.999998 166L 106.999998 166C 103.686298 166 100.999998 168.6863 100.999998 172L 100.999998 176C 100.999998 177.1046 106.372598 178 112.999998 178C 119.627398 178 124.999998 177.1046 124.999998 176L 124.999998 172C 124.999998 168.6863 122.313698 166 118.999998 166L 117.999998 166C 116.895398 166 115.999998 165.1046 115.999998 164L 115.999998 163.8432ZM 188.000006 163.8432C 188.000006 163.2322 188.291606 162.6658 188.711706 162.2221C 190.105306 160.7501 191.000006 158.5717 191.000006 156.5C 191.000006 152.9101 188.313706 150 185.000006 150C 181.686306 150 179.000006 152.9101 179.000006 156.5C 179.000006 158.5717 179.894706 160.7501 181.288306 162.2221C 181.708406 162.6658 182.000006 163.2322 182.000006 163.8432L 182.000006 164C 182.000006 165.1046 181.104606 166 180.000006 166L 179.000006 166C 175.686306 166 173.000006 168.6863 173.000006 172L 173.000006 176C 173.000006 177.1046 178.372606 178 185.000006 178C 191.627406 178 197.000006 177.1046 197.000006 176L 197.000006 172C 197.000006 168.6863 194.313706 166 191.000006 166L 190.000006 166C 188.895406 166 188.000006 165.1046 188.000006 164L 188.000006 163.8432ZM 79.999998 160.8432C 79.999998 160.2322 80.291598 159.6658 80.711698 159.2221C 82.105298 157.7501 82.999998 155.5717 82.999998 153.5C 82.999998 149.9101 80.313698 147 76.999998 147C 73.686298 147 70.999998 149.9101 70.999998 153.5C 70.999998 155.5717 71.894698 157.7501 73.288298 159.2221C 73.708398 159.6658 73.999998 160.2322 73.999998 160.8432L 73.999998 161C 73.999998 162.1046 73.104598 163 71.999998 163L 70.999998 163C 67.686298 163 64.999998 165.6863 64.999998 169L 64.999998 173C 64.999998 174.1046 70.372598 175 76.999998 175C 83.627398 175 88.999998 174.1046 88.999998 173L 88.999998 169C 88.999998 165.6863 86.313698 163 82.999998 163L 81.999998 163C 80.895398 163 79.999998 162.1046 79.999998 161L 79.999998 160.8432ZM 218.000006 160.8432C 218.000006 160.232193 217.708411 159.665802 217.288306 159.222106C 215.894705 157.750106 215.000006 155.571701 215.000006 153.5C 215.000006 149.910095 217.686301 147 221.000006 147C 224.313711 147 227.000006 149.910095 227.000006 153.5C 227.000006 155.571701 226.105307 157.750106 224.711706 159.222106C 224.291601 159.665802 224.000006 160.232193 224.000006 160.8432L 224.000006 161C 224.000006 162.104599 224.895407 163 226.000006 163L 227.000006 163C 230.313711 163 233.000006 165.686294 233.000006 169L 233.000006 173C 233.000006 174.104599 227.627402 175 221.000006 175C 214.37261 175 209.000006 174.104599 209.000006 173L 209.000006 169C 209.000006 165.686294 211.686301 163 215.000006 163L 216.000006 163C 217.104605 163 218.000006 162.104599 218.000006 161L 218.000006 160.8432ZM 146.000006 165.8432C 146.000006 165.232193 145.708411 164.665802 145.288306 164.222106C 143.894705 162.750106 143.000006 160.571701 143.000006 158.5C 143.000006 154.910095 145.686301 152 149.000006 152C 152.313711 152 155.000006 154.910095 155.000006 158.5C 155.000006 160.571701 154.105307 162.750106 152.711706 164.222106C 152.291601 164.665802 152.000006 165.232193 152.000006 165.8432L 152.000006 166C 152.000006 167.104599 152.895407 168 154.000006 168L 155.000006 168C 158.313711 168 161.000006 170.686294 161.000006 174L 161.000006 178C 161.000006 179.104614 155.627402 180 149.000006 180C 142.37261 180 137.000006 179.104614 137.000006 178L 137.000006 174C 137.000006 170.686294 139.686301 168 143.000006 168L 144.000006 168C 145.104605 168 146.000006 167.104599 146.000006 166L 146.000006 165.8432ZM 47.999998 58.8432C 47.999998 58.2322 48.291598 57.6658 48.711698 57.2221C 50.105298 55.7501 50.999998 53.5717 50.999998 51.5C 50.999998 47.9101 48.313698 45 44.999998 45C 41.686298 45 38.999998 47.9101 38.999998 51.5C 38.999998 53.5717 39.894698 55.7501 41.288298 57.2221C 41.708398 57.6658 41.999998 58.2322 41.999998 58.8432L 41.999998 59C 41.999998 60.1046 41.104598 61 39.999998 61L 38.999998 61C 35.686298 61 32.999998 63.6863 32.999998 67L 32.999998 71C 32.999998 72.1046 38.372598 73 44.999998 73C 51.627398 73 56.999998 72.1046 56.999998 71L 56.999998 67C 56.999998 63.6863 54.313698 61 50.999998 61L 49.999998 61C 48.895398 61 47.999998 60.1046 47.999998 59L 47.999998 58.8432ZM 250.000006 58.8432C 250.000006 58.232193 249.708411 57.665802 249.288306 57.222106C 247.89472 55.750106 247.000006 53.571701 247.000006 51.5C 247.000006 47.910102 249.686316 45 253.000006 45C 256.313696 45 259.000006 47.910102 259.000006 51.5C 259.000006 53.571701 258.105292 55.750106 256.711706 57.222106C 256.291601 57.665802 256.000006 58.232193 256.000006 58.8432L 256.000006 59C 256.000006 60.104599 256.895392 61 258.000006 61L 259.000006 61C 262.313696 61 265.000006 63.686294 265.000006 67L 265.000006 71C 265.000006 72.104599 259.627417 73 253.000006 73C 246.372595 73 241.000006 72.104599 241.000006 71L 241.000006 67C 241.000006 63.686294 243.686316 61 247.000006 61L 248.000006 61C 249.10462 61 250.000006 60.104599 250.000006 59L 250.000006 58.8432ZM 25 41.8432C 25 41.2322 25.2916 40.6658 25.7117 40.2221C 27.1053 38.7501 28 36.5717 28 34.5C 28 30.9101 25.3137 28 22 28C 18.6863 28 16 30.9101 16 34.5C 16 36.5717 16.8947 38.7501 18.2883 40.2221C 18.7084 40.6658 19 41.2322 19 41.8432L 19 42C 19 43.1046 18.1046 44 17 44L 16 44C 12.6863 44 10 46.6863 10 50L 10 54C 10 55.1046 15.3726 56 22 56C 28.6274 56 34 55.1046 34 54L 34 50C 34 46.6863 31.3137 44 28 44L 27 44C 25.8954 44 25 43.1046 25 42L 25 41.8432ZM 273.000006 41.8432C 273.000006 41.2322 272.708411 40.665802 272.288306 40.222099C 270.89472 38.750099 270.000006 36.571701 270.000006 34.5C 270.000006 30.910102 272.686316 28 276.000006 28C 279.313696 28 282.000006 30.910102 282.000006 34.5C 282.000006 36.571701 281.105292 38.750099 279.711706 40.222099C 279.291601 40.665802 279.000006 41.2322 279.000006 41.8432L 279.000006 42C 279.000006 43.104599 279.895392 44 281.000006 44L 282.000006 44C 285.313696 44 288.000006 46.686302 288.000006 50L 288.000006 54C 288.000006 55.104599 282.627417 56 276.000006 56C 269.372595 56 264.000006 55.104599 264.000006 54L 264.000006 50C 264.000006 46.686302 266.686316 44 270.000006 44L 271.000006 44C 272.10462 44 273.000006 43.104599 273.000006 42L 273.000006 41.8432ZM 67.999998 33.8432C 67.999998 33.2322 68.291598 32.6658 68.711698 32.2221C 70.105298 30.7501 70.999998 28.5717 70.999998 26.5C 70.999998 22.9101 68.313698 20 64.999998 20C 61.686298 20 58.999998 22.9101 58.999998 26.5C 58.999998 28.5717 59.894698 30.7501 61.288298 32.2221C 61.708398 32.6658 61.999998 33.2322 61.999998 33.8432L 61.999998 34C 61.999998 35.1046 61.104598 36 59.999998 36L 58.999998 36C 55.686298 36 52.999998 38.6863 52.999998 42L 52.999998 46C 52.999998 47.1046 58.372598 48 64.999998 48C 71.627398 48 76.999998 47.1046 76.999998 46L 76.999998 42C 76.999998 38.6863 74.313698 36 70.999998 36L 69.999998 36C 68.895398 36 67.999998 35.1046 67.999998 34L 67.999998 33.8432ZM 96.999998 29.8432C 96.999998 29.2322 97.291598 28.6658 97.711698 28.2221C 99.105298 26.7501 99.999998 24.5717 99.999998 22.5C 99.999998 18.9101 97.313698 16 93.999998 16C 90.686298 16 87.999998 18.9101 87.999998 22.5C 87.999998 24.5717 88.894698 26.7501 90.288298 28.2221C 90.708398 28.6658 90.999998 29.2322 90.999998 29.8432L 90.999998 30C 90.999998 31.1046 90.104598 32 88.999998 32L 87.999998 32C 84.686298 32 81.999998 34.6863 81.999998 38L 81.999998 42C 81.999998 43.1046 87.372598 44 93.999998 44C 100.627398 44 105.999998 43.1046 105.999998 42L 105.999998 38C 105.999998 34.6863 103.313698 32 99.999998 32L 98.999998 32C 97.895398 32 96.999998 31.1046 96.999998 30L 96.999998 29.8432ZM 207.000006 29.8432C 207.000006 29.2322 207.291606 28.6658 207.711706 28.2221C 209.105306 26.7501 210.000006 24.5717 210.000006 22.5C 210.000006 18.9101 207.313706 16 204.000006 16C 200.686306 16 198.000006 18.9101 198.000006 22.5C 198.000006 24.5717 198.894706 26.7501 200.288306 28.2221C 200.708406 28.6658 201.000006 29.2322 201.000006 29.8432L 201.000006 30C 201.000006 31.1046 200.104606 32 199.000006 32L 198.000006 32C 194.686306 32 192.000006 34.6863 192.000006 38L 192.000006 42C 192.000006 43.1046 197.372606 44 204.000006 44C 210.627406 44 216.000006 43.1046 216.000006 42L 216.000006 38C 216.000006 34.6863 213.313706 32 210.000006 32L 209.000006 32C 207.895406 32 207.000006 31.1046 207.000006 30L 207.000006 29.8432ZM 152.000006 23.8432C 152.000006 23.2322 152.291606 22.6658 152.711706 22.2221C 154.105306 20.7501 155.000006 18.5717 155.000006 16.5C 155.000006 12.9101 152.313706 10 149.000006 10C 145.686306 10 143.000006 12.9101 143.000006 16.5C 143.000006 18.5717 143.894706 20.7501 145.288306 22.2221C 145.708406 22.6658 146.000006 23.2322 146.000006 23.8432L 146.000006 24C 146.000006 25.1046 145.104606 26 144.000006 26L 143.000006 26C 139.686306 26 137.000006 28.6863 137.000006 32L 137.000006 36C 137.000006 37.1046 142.372606 38 149.000006 38C 155.627406 38 161.000006 37.1046 161.000006 36L 161.000006 32C 161.000006 28.6863 158.313706 26 155.000006 26L 154.000006 26C 152.895406 26 152.000006 25.1046 152.000006 24L 152.000006 23.8432ZM 126.000006 34.8432C 126.000006 34.2322 126.291606 33.6658 126.711706 33.2221C 128.105306 31.7501 129.000006 29.5717 129.000006 27.5C 129.000006 23.9101 126.313706 21 123.000006 21C 119.686306 21 117.000006 23.9101 117.000006 27.5C 117.000006 29.5717 117.894706 31.7501 119.288306 33.2221C 119.708406 33.6658 120.000006 34.2322 120.000006 34.8432L 120.000006 35C 120.000006 36.1046 119.104606 37 118.000006 37L 117.000006 37C 113.686306 37 111.000006 39.6863 111.000006 43L 111.000006 47C 111.000006 48.1046 116.372606 49 123.000006 49C 129.627406 49 135.000006 48.1046 135.000006 47L 135.000006 43C 135.000006 39.6863 132.313706 37 129.000006 37L 128.000006 37C 126.895406 37 126.000006 36.1046 126.000006 35L 126.000006 34.8432ZM 178.000006 34.8432C 178.000006 34.2322 178.291606 33.6658 178.711706 33.2221C 180.105306 31.7501 181.000006 29.5717 181.000006 27.5C 181.000006 23.9101 178.313706 21 175.000006 21C 171.686306 21 169.000006 23.9101 169.000006 27.5C 169.000006 29.5717 169.894706 31.7501 171.288306 33.2221C 171.708406 33.6658 172.000006 34.2322 172.000006 34.8432L 172.000006 35C 172.000006 36.1046 171.104606 37 170.000006 37L 169.000006 37C 165.686306 37 163.000006 39.6863 163.000006 43L 163.000006 47C 163.000006 48.1046 168.372606 49 175.000006 49C 181.627406 49 187.000006 48.1046 187.000006 47L 187.000006 43C 187.000006 39.6863 184.313706 37 181.000006 37L 180.000006 37C 178.895406 37 178.000006 36.1046 178.000006 35L 178.000006 34.8432ZM 230.000006 33.8432C 230.000006 33.2322 229.708411 32.665802 229.288306 32.222099C 227.894705 30.750099 227.000006 28.571701 227.000006 26.5C 227.000006 22.910102 229.686301 20 233.000006 20C 236.313711 20 239.000006 22.910102 239.000006 26.5C 239.000006 28.571701 238.105292 30.750099 236.711706 32.222099C 236.291601 32.665802 236.000006 33.2322 236.000006 33.8432L 236.000006 34C 236.000006 35.104599 236.895407 36 238.000006 36L 239.000006 36C 242.313696 36 245.000006 38.686302 245.000006 42L 245.000006 46C 245.000006 47.104599 239.627417 48 233.000006 48C 226.37261 48 221.000006 47.104599 221.000006 46L 221.000006 42C 221.000006 38.686302 223.686301 36 227.000006 36L 228.000006 36C 229.104605 36 230.000006 35.104599 230.000006 34L 230.000006 33.8432ZM 115.999998 67.8432C 115.999998 67.2322 116.291598 66.6658 116.711698 66.2221C 118.105298 64.7501 118.999998 62.5717 118.999998 60.5C 118.999998 56.9101 116.313698 54 112.999998 54C 109.686298 54 106.999998 56.9101 106.999998 60.5C 106.999998 62.5717 107.894698 64.7501 109.288298 66.2221C 109.708398 66.6658 109.999998 67.2322 109.999998 67.8432L 109.999998 68C 109.999998 69.1046 109.104598 70 107.999998 70L 106.999998 70C 103.686298 70 100.999998 72.6863 100.999998 76L 100.999998 80C 100.999998 81.1046 106.372598 82 112.999998 82C 119.627398 82 124.999998 81.1046 124.999998 80L 124.999998 76C 124.999998 72.6863 122.313698 70 118.999998 70L 117.999998 70C 116.895398 70 115.999998 69.1046 115.999998 68L 115.999998 67.8432ZM 188.000006 67.8432C 188.000006 67.2322 188.291606 66.6658 188.711706 66.2221C 190.105306 64.7501 191.000006 62.5717 191.000006 60.5C 191.000006 56.9101 188.313706 54 185.000006 54C 181.686306 54 179.000006 56.9101 179.000006 60.5C 179.000006 62.5717 179.894706 64.7501 181.288306 66.2221C 181.708406 66.6658 182.000006 67.2322 182.000006 67.8432L 182.000006 68C 182.000006 69.1046 181.104606 70 180.000006 70L 179.000006 70C 175.686306 70 173.000006 72.6863 173.000006 76L 173.000006 80C 173.000006 81.1046 178.372606 82 185.000006 82C 191.627406 82 197.000006 81.1046 197.000006 80L 197.000006 76C 197.000006 72.6863 194.313706 70 191.000006 70L 190.000006 70C 188.895406 70 188.000006 69.1046 188.000006 68L 188.000006 67.8432ZM 79.999998 64.8432C 79.999998 64.2322 80.291598 63.6658 80.711698 63.2221C 82.105298 61.7501 82.999998 59.5717 82.999998 57.5C 82.999998 53.9101 80.313698 51 76.999998 51C 73.686298 51 70.999998 53.9101 70.999998 57.5C 70.999998 59.5717 71.894698 61.7501 73.288298 63.2221C 73.708398 63.6658 73.999998 64.2322 73.999998 64.8432L 73.999998 65C 73.999998 66.1046 73.104598 67 71.999998 67L 70.999998 67C 67.686298 67 64.999998 69.6863 64.999998 73L 64.999998 77C 64.999998 78.1046 70.372598 79 76.999998 79C 83.627398 79 88.999998 78.1046 88.999998 77L 88.999998 73C 88.999998 69.6863 86.313698 67 82.999998 67L 81.999998 67C 80.895398 67 79.999998 66.1046 79.999998 65L 79.999998 64.8432ZM 218.000006 64.8432C 218.000006 64.232193 217.708411 63.665802 217.288306 63.222106C 215.894705 61.750106 215.000006 59.571701 215.000006 57.5C 215.000006 53.910095 217.686301 51 221.000006 51C 224.313711 51 227.000006 53.910095 227.000006 57.5C 227.000006 59.571701 226.105307 61.750106 224.711706 63.222106C 224.291601 63.665802 224.000006 64.232193 224.000006 64.8432L 224.000006 65C 224.000006 66.104599 224.895407 67 226.000006 67L 227.000006 67C 230.313711 67 233.000006 69.686294 233.000006 73L 233.000006 77C 233.000006 78.104599 227.627402 79 221.000006 79C 214.37261 79 209.000006 78.104599 209.000006 77L 209.000006 73C 209.000006 69.686294 211.686301 67 215.000006 67L 216.000006 67C 217.104605 67 218.000006 66.104599 218.000006 65L 218.000006 64.8432ZM 146.000006 61.8432C 146.000006 61.232193 145.708411 60.665802 145.288306 60.222106C 143.894705 58.750106 143.000006 56.571701 143.000006 54.5C 143.000006 50.910095 145.686301 48 149.000006 48C 152.313711 48 155.000006 50.910095 155.000006 54.5C 155.000006 56.571701 154.105307 58.750106 152.711706 60.222106C 152.291601 60.665802 152.000006 61.232193 152.000006 61.8432L 152.000006 62C 152.000006 63.104599 152.895407 64 154.000006 64L 155.000006 64C 158.313711 64 161.000006 66.686294 161.000006 70L 161.000006 74C 161.000006 75.104599 155.627402 76 149.000006 76C 142.37261 76 137.000006 75.104599 137.000006 74L 137.000006 70C 137.000006 66.686294 139.686301 64 143.000006 64L 144.000006 64C 145.104605 64 146.000006 63.104599 146.000006 62L 146.000006 61.8432ZM 52.999998 250.8432C 52.999998 250.2322 53.291598 249.6658 53.711698 249.2221C 55.105298 247.7501 55.999998 245.5717 55.999998 243.5C 55.999998 239.9101 53.313698 237 49.999998 237C 46.686298 237 43.999998 239.9101 43.999998 243.5C 43.999998 245.5717 44.894698 247.7501 46.288298 249.2221C 46.708398 249.6658 46.999998 250.2322 46.999998 250.8432L 46.999998 251C 46.999998 252.1046 46.104598 253 44.999998 253L 43.999998 253C 40.686298 253 37.999998 255.6863 37.999998 259L 37.999998 263C 37.999998 264.1046 43.372598 265 49.999998 265C 56.627398 265 61.999998 264.1046 61.999998 263L 61.999998 259C 61.999998 255.6863 59.313698 253 55.999998 253L 54.999998 253C 53.895398 253 52.999998 252.1046 52.999998 251L 52.999998 250.8432ZM 245.000006 250.8432C 245.000006 250.232208 244.708411 249.665802 244.288306 249.222106C 242.89472 247.750091 242.000006 245.571685 242.000006 243.5C 242.000006 239.910095 244.686316 237 248.000006 237C 251.313696 237 254.000006 239.910095 254.000006 243.5C 254.000006 245.571685 253.105292 247.750091 251.711706 249.222106C 251.291601 249.665802 251.000006 250.232208 251.000006 250.8432L 251.000006 251C 251.000006 252.104614 251.895392 253 253.000006 253L 254.000006 253C 257.313696 253 260.000006 255.686309 260.000006 259L 260.000006 263C 260.000006 264.104614 254.627417 265 248.000006 265C 241.372595 265 236.000006 264.104614 236.000006 263L 236.000006 259C 236.000006 255.686309 238.686316 253 242.000006 253L 243.000006 253C 244.10462 253 245.000006 252.104614 245.000006 251L 245.000006 250.8432ZM 25 233.8432C 25 233.2322 25.2916 232.6658 25.7117 232.2221C 27.1053 230.7501 28 228.5717 28 226.5C 28 222.9101 25.3137 220 22 220C 18.6863 220 16 222.9101 16 226.5C 16 228.5717 16.8947 230.7501 18.2883 232.2221C 18.7084 232.6658 19 233.2322 19 233.8432L 19 234C 19 235.1046 18.1046 236 17 236L 16 236C 12.6863 236 10 238.6863 10 242L 10 246C 10 247.1046 15.3726 248 22 248C 28.6274 248 34 247.1046 34 246L 34 242C 34 238.6863 31.3137 236 28 236L 27 236C 25.8954 236 25 235.1046 25 234L 25 233.8432ZM 273.000006 233.8432C 273.000006 233.232208 272.708411 232.665802 272.288306 232.222106C 270.89472 230.750091 270.000006 228.571685 270.000006 226.5C 270.000006 222.910095 272.686316 220 276.000006 220C 279.313696 220 282.000006 222.910095 282.000006 226.5C 282.000006 228.571685 281.105292 230.750091 279.711706 232.222106C 279.291601 232.665802 279.000006 233.232208 279.000006 233.8432L 279.000006 234C 279.000006 235.104614 279.895392 236 281.000006 236L 282.000006 236C 285.313696 236 288.000006 238.686309 288.000006 242L 288.000006 246C 288.000006 247.104614 282.627417 248 276.000006 248C 269.372595 248 264.000006 247.104614 264.000006 246L 264.000006 242C 264.000006 238.686309 266.686316 236 270.000006 236L 271.000006 236C 272.10462 236 273.000006 235.104614 273.000006 234L 273.000006 233.8432ZM 73.999998 223.8432C 73.999998 223.2322 74.291598 222.6658 74.711698 222.2221C 76.105298 220.7501 76.999998 218.5717 76.999998 216.5C 76.999998 212.9101 74.313698 210 70.999998 210C 67.686298 210 64.999998 212.9101 64.999998 216.5C 64.999998 218.5717 65.894698 220.7501 67.288298 222.2221C 67.708398 222.6658 67.999998 223.2322 67.999998 223.8432L 67.999998 224C 67.999998 225.1046 67.104598 226 65.999998 226L 64.999998 226C 61.686298 226 58.999998 228.6863 58.999998 232L 58.999998 236C 58.999998 237.1046 64.372598 238 70.999998 238C 77.627398 238 82.999998 237.1046 82.999998 236L 82.999998 232C 82.999998 228.6863 80.313698 226 76.999998 226L 75.999998 226C 74.895398 226 73.999998 225.1046 73.999998 224L 73.999998 223.8432ZM 224.000006 223.8432C 224.000006 223.232208 223.708411 222.665802 223.288306 222.222106C 221.894705 220.750091 221.000006 218.571685 221.000006 216.5C 221.000006 212.910095 223.686301 210 227.000006 210C 230.313711 210 233.000006 212.910095 233.000006 216.5C 233.000006 218.571685 232.105307 220.750091 230.711706 222.222106C 230.291601 222.665802 230.000006 223.232208 230.000006 223.8432L 230.000006 224C 230.000006 225.104614 230.895407 226 232.000006 226L 233.000006 226C 236.313711 226 239.000006 228.686309 239.000006 232L 239.000006 236C 239.000006 237.104614 233.627402 238 227.000006 238C 220.37261 238 215.000006 237.104614 215.000006 236L 215.000006 232C 215.000006 228.686309 217.686301 226 221.000006 226L 222.000006 226C 223.104605 226 224.000006 225.104614 224.000006 224L 224.000006 223.8432ZM 91.999998 259.8432C 91.999998 259.2322 92.291598 258.6658 92.711698 258.2221C 94.105298 256.7501 94.999998 254.5717 94.999998 252.5C 94.999998 248.9101 92.313698 246 88.999998 246C 85.686298 246 82.999998 248.9101 82.999998 252.5C 82.999998 254.5717 83.894698 256.7501 85.288298 258.2221C 85.708398 258.6658 85.999998 259.2322 85.999998 259.8432L 85.999998 260C 85.999998 261.1046 85.104598 262 83.999998 262L 82.999998 262C 79.686298 262 76.999998 264.6863 76.999998 268L 76.999998 272C 76.999998 273.1046 82.372598 274 88.999998 274C 95.627398 274 100.999998 273.1046 100.999998 272L 100.999998 268C 100.999998 264.6863 98.313698 262 94.999998 262L 93.999998 262C 92.895398 262 91.999998 261.1046 91.999998 260L 91.999998 259.8432ZM 206.000006 259.8432C 206.000006 259.232208 205.708411 258.665802 205.288306 258.222106C 203.894705 256.750091 203.000006 254.571685 203.000006 252.5C 203.000006 248.910095 205.686301 246 209.000006 246C 212.313711 246 215.000006 248.910095 215.000006 252.5C 215.000006 254.571685 214.105307 256.750091 212.711706 258.222106C 212.291601 258.665802 212.000006 259.232208 212.000006 259.8432L 212.000006 260C 212.000006 261.104614 212.895407 262 214.000006 262L 215.000006 262C 218.313711 262 221.000006 264.686309 221.000006 268L 221.000006 272C 221.000006 273.104614 215.627402 274 209.000006 274C 202.37261 274 197.000006 273.104614 197.000006 272L 197.000006 268C 197.000006 264.686309 199.686301 262 203.000006 262L 204.000006 262C 205.104605 262 206.000006 261.104614 206.000006 260L 206.000006 259.8432ZM 146.000006 261.8432C 146.000006 261.232208 145.708411 260.665802 145.288306 260.222106C 143.894705 258.750091 143.000006 256.571685 143.000006 254.5C 143.000006 250.910095 145.686301 248 149.000006 248C 152.313711 248 155.000006 250.910095 155.000006 254.5C 155.000006 256.571685 154.105307 258.750091 152.711706 260.222106C 152.291601 260.665802 152.000006 261.232208 152.000006 261.8432L 152.000006 262C 152.000006 263.104614 152.895407 264 154.000006 264L 155.000006 264C 158.313711 264 161.000006 266.686309 161.000006 270L 161.000006 274C 161.000006 275.104614 155.627402 276 149.000006 276C 142.37261 276 137.000006 275.104614 137.000006 274L 137.000006 270C 137.000006 266.686309 139.686301 264 143.000006 264L 144.000006 264C 145.104605 264 146.000006 263.104614 146.000006 262L 146.000006 261.8432ZM 34.999998 339.8432C 34.999998 339.2322 35.291598 338.6658 35.711698 338.2221C 37.105298 336.7501 37.999998 334.5717 37.999998 332.5C 37.999998 328.9101 35.313698 326 31.999998 326C 28.686298 326 25.999998 328.9101 25.999998 332.5C 25.999998 334.5717 26.894698 336.7501 28.288298 338.2221C 28.708398 338.6658 28.999998 339.2322 28.999998 339.8432L 28.999998 340C 28.999998 341.1046 28.104598 342 26.999998 342L 25.999998 342C 22.686298 342 19.999998 344.6863 19.999998 348L 19.999998 352C 19.999998 353.1046 25.372598 354 31.999998 354C 38.627398 354 43.999998 353.1046 43.999998 352L 43.999998 348C 43.999998 344.6863 41.313698 342 37.999998 342L 36.999998 342C 35.895398 342 34.999998 341.1046 34.999998 340L 34.999998 339.8432ZM 263.000006 339.8432C 263.000006 339.232208 262.708411 338.665802 262.288306 338.222106C 260.89472 336.750091 260.000006 334.571685 260.000006 332.5C 260.000006 328.910095 262.686316 326 266.000006 326C 269.313696 326 272.000006 328.910095 272.000006 332.5C 272.000006 334.571685 271.105292 336.750091 269.711706 338.222106C 269.291601 338.665802 269.000006 339.232208 269.000006 339.8432L 269.000006 340C 269.000006 341.104614 269.895392 342 271.000006 342L 272.000006 342C 275.313696 342 278.000006 344.686309 278.000006 348L 278.000006 352C 278.000006 353.104614 272.627417 354 266.000006 354C 259.372595 354 254.000006 353.104614 254.000006 352L 254.000006 348C 254.000006 344.686309 256.686316 342 260.000006 342L 261.000006 342C 262.10462 342 263.000006 341.104614 263.000006 340L 263.000006 339.8432ZM 73.999998 319.8432C 73.999998 319.2322 74.291598 318.6658 74.711698 318.2221C 76.105298 316.7501 76.999998 314.5717 76.999998 312.5C 76.999998 308.9101 74.313698 306 70.999998 306C 67.686298 306 64.999998 308.9101 64.999998 312.5C 64.999998 314.5717 65.894698 316.7501 67.288298 318.2221C 67.708398 318.6658 67.999998 319.2322 67.999998 319.8432L 67.999998 320C 67.999998 321.1046 67.104598 322 65.999998 322L 64.999998 322C 61.686298 322 58.999998 324.6863 58.999998 328L 58.999998 332C 58.999998 333.1046 64.372598 334 70.999998 334C 77.627398 334 82.999998 333.1046 82.999998 332L 82.999998 328C 82.999998 324.6863 80.313698 322 76.999998 322L 75.999998 322C 74.895398 322 73.999998 321.1046 73.999998 320L 73.999998 319.8432ZM 224.000006 319.8432C 224.000006 319.232208 223.708411 318.665802 223.288306 318.222106C 221.894705 316.750091 221.000006 314.571685 221.000006 312.5C 221.000006 308.910095 223.686301 306 227.000006 306C 230.313711 306 233.000006 308.910095 233.000006 312.5C 233.000006 314.571685 232.105307 316.750091 230.711706 318.222106C 230.291601 318.665802 230.000006 319.232208 230.000006 319.8432L 230.000006 320C 230.000006 321.104614 230.895407 322 232.000006 322L 233.000006 322C 236.313711 322 239.000006 324.686309 239.000006 328L 239.000006 332C 239.000006 333.104614 233.627402 334 227.000006 334C 220.37261 334 215.000006 333.104614 215.000006 332L 215.000006 328C 215.000006 324.686309 217.686301 322 221.000006 322L 222.000006 322C 223.104605 322 224.000006 321.104614 224.000006 320L 224.000006 319.8432ZM 91.999998 355.8432C 91.999998 355.2322 92.291598 354.6658 92.711698 354.2221C 94.105298 352.7501 94.999998 350.5717 94.999998 348.5C 94.999998 344.9101 92.313698 342 88.999998 342C 85.686298 342 82.999998 344.9101 82.999998 348.5C 82.999998 350.5717 83.894698 352.7501 85.288298 354.2221C 85.708398 354.6658 85.999998 355.2322 85.999998 355.8432L 85.999998 356C 85.999998 357.1046 85.104598 358 83.999998 358L 82.999998 358C 79.686298 358 76.999998 360.6863 76.999998 364L 76.999998 368C 76.999998 369.1046 82.372598 370 88.999998 370C 95.627398 370 100.999998 369.1046 100.999998 368L 100.999998 364C 100.999998 360.6863 98.313698 358 94.999998 358L 93.999998 358C 92.895398 358 91.999998 357.1046 91.999998 356L 91.999998 355.8432ZM 206.000006 355.8432C 206.000006 355.232208 205.708411 354.665802 205.288306 354.222106C 203.894705 352.750091 203.000006 350.571685 203.000006 348.5C 203.000006 344.910095 205.686301 342 209.000006 342C 212.313711 342 215.000006 344.910095 215.000006 348.5C 215.000006 350.571685 214.105307 352.750091 212.711706 354.222106C 212.291601 354.665802 212.000006 355.232208 212.000006 355.8432L 212.000006 356C 212.000006 357.104614 212.895407 358 214.000006 358L 215.000006 358C 218.313711 358 221.000006 360.686309 221.000006 364L 221.000006 368C 221.000006 369.104614 215.627402 370 209.000006 370C 202.37261 370 197.000006 369.104614 197.000006 368L 197.000006 364C 197.000006 360.686309 199.686301 358 203.000006 358L 204.000006 358C 205.104605 358 206.000006 357.104614 206.000006 356L 206.000006 355.8432ZM 146.000006 357.8432C 146.000006 357.232208 145.708411 356.665802 145.288306 356.222106C 143.894705 354.750091 143.000006 352.571685 143.000006 350.5C 143.000006 346.910095 145.686301 344 149.000006 344C 152.313711 344 155.000006 346.910095 155.000006 350.5C 155.000006 352.571685 154.105307 354.750091 152.711706 356.222106C 152.291601 356.665802 152.000006 357.232208 152.000006 357.8432L 152.000006 358C 152.000006 359.104614 152.895407 360 154.000006 360L 155.000006 360C 158.313711 360 161.000006 362.686309 161.000006 366L 161.000006 370C 161.000006 371.104614 155.627402 372 149.000006 372C 142.37261 372 137.000006 371.104614 137.000006 370L 137.000006 366C 137.000006 362.686309 139.686301 360 143.000006 360L 144.000006 360C 145.104605 360 146.000006 359.104614 146.000006 358L 146.000006 357.8432ZM 31.999998 428.8432C 31.999998 428.2322 32.291598 427.6658 32.711698 427.2221C 34.105298 425.7501 34.999998 423.5717 34.999998 421.5C 34.999998 417.9101 32.313698 415 28.999998 415C 25.686298 415 22.999998 417.9101 22.999998 421.5C 22.999998 423.5717 23.894698 425.7501 25.288298 427.2221C 25.708398 427.6658 25.999998 428.2322 25.999998 428.8432L 25.999998 429C 25.999998 430.1046 25.104598 431 23.999998 431L 22.999998 431C 19.686298 431 16.999998 433.6863 16.999998 437L 16.999998 441C 16.999998 442.1046 22.372598 443 28.999998 443C 35.627398 443 40.999998 442.1046 40.999998 441L 40.999998 437C 40.999998 433.6863 38.313698 431 34.999998 431L 33.999998 431C 32.895398 431 31.999998 430.1046 31.999998 429L 31.999998 428.8432ZM 266.000006 428.8432C 266.000006 428.232208 265.708411 427.665802 265.288306 427.222106C 263.89472 425.750091 263.000006 423.571685 263.000006 421.5C 263.000006 417.910095 265.686316 415 269.000006 415C 272.313696 415 275.000006 417.910095 275.000006 421.5C 275.000006 423.571685 274.105292 425.750091 272.711706 427.222106C 272.291601 427.665802 272.000006 428.232208 272.000006 428.8432L 272.000006 429C 272.000006 430.104614 272.895392 431 274.000006 431L 275.000006 431C 278.313696 431 281.000006 433.686309 281.000006 436.999969L 281.000006 440.999969C 281.000006 442.104583 275.627417 442.999969 269.000006 442.999969C 262.372595 442.999969 257.000006 442.104583 257.000006 440.999969L 257.000006 436.999969C 257.000006 433.686309 259.686316 431 263.000006 431L 264.000006 431C 265.10462 431 266.000006 430.104614 266.000006 429L 266.000006 428.8432ZM 79.999998 445.8432C 79.999998 445.2322 80.291598 444.6658 80.711698 444.2221C 82.105298 442.7501 82.999998 440.5717 82.999998 438.5C 82.999998 434.9101 80.313698 432 76.999998 432C 73.686298 432 70.999998 434.9101 70.999998 438.5C 70.999998 440.5717 71.894698 442.7501 73.288298 444.2221C 73.708398 444.6658 73.999998 445.2322 73.999998 445.8432L 73.999998 446C 73.999998 447.1046 73.104598 448 71.999998 448L 70.999998 448C 67.686298 448 64.999998 450.6863 64.999998 454L 64.999998 458C 64.999998 459.1046 70.372598 460 76.999998 460C 83.627398 460 88.999998 459.1046 88.999998 458L 88.999998 454C 88.999998 450.6863 86.313698 448 82.999998 448L 81.999998 448C 80.895398 448 79.999998 447.1046 79.999998 446L 79.999998 445.8432ZM 218.000006 445.84317C 218.000006 445.232208 217.708411 444.665802 217.288306 444.222076C 215.894705 442.750091 215.000006 440.571685 215.000006 438.499969C 215.000006 434.910125 217.686301 432 221.000006 432C 224.313711 432 227.000006 434.910125 227.000006 438.499969C 227.000006 440.571685 226.105307 442.750091 224.711706 444.222076C 224.291601 444.665802 224.000006 445.232208 224.000006 445.84317L 224.000006 445.999969C 224.000006 447.104583 224.895407 447.999969 226.000006 447.999969L 227.000006 447.999969C 230.313711 447.999969 233.000006 450.686309 233.000006 453.999969L 233.000006 457.999969C 233.000006 459.104583 227.627402 459.999969 221.000006 459.999969C 214.37261 459.999969 209.000006 459.104583 209.000006 457.999969L 209.000006 453.999969C 209.000006 450.686309 211.686301 447.999969 215.000006 447.999969L 216.000006 447.999969C 217.104605 447.999969 218.000006 447.104583 218.000006 445.999969L 218.000006 445.84317ZM 146.000006 453.843231C 146.000006 453.232208 145.708411 452.665802 145.288306 452.222137C 143.894705 450.750152 143.000006 448.571746 143.000006 446.50003C 143.000006 442.910125 145.686301 440.00003 149.000006 440.00003C 152.313711 440.00003 155.000006 442.910125 155.000006 446.50003C 155.000006 448.571746 154.105307 450.750152 152.711706 452.222137C 152.291601 452.665802 152.000006 453.232208 152.000006 453.843231L 152.000006 454.00003C 152.000006 455.104644 152.895407 456.00003 154.000006 456.00003L 155.000006 456.00003C 158.313711 456.00003 161.000006 458.686309 161.000006 462.00003L 161.000006 466.00003C 161.000006 467.104644 155.627402 468.00003 149.000006 468.00003C 142.37261 468.00003 137.000006 467.104644 137.000006 466.00003L 137.000006 462.00003C 137.000006 458.686309 139.686301 456.00003 143.000006 456.00003L 144.000006 456.00003C 145.104605 456.00003 146.000006 455.104644 146.000006 454.00003L 146.000006 453.843231Z"></path></g></g></g><g id="g-root-tx_streamli_qtf2aw3d6yvd-stroke" data-item-order="0" transform="translate(158.99996948242188, 39)"></g><g id="g-root-sear_1lua5wo3d5iir-stroke" data-item-order="0" transform="translate(374.9999694824219, 135)"><g id="sear_1lua5wo3d5iir-stroke" fill="none" stroke-linecap="round" stroke-linejoin="round" stroke-miterlimit="4" stroke="#e5f8ff" stroke-width="2"><g><path d="M 11 31C 11 42.045696 19.954306 51 31 51C 42.045696 51 51 42.045696 51 31C 51 19.954306 42.045696 11 31 11C 19.954306 11 11 19.954306 11 31ZM 57 57L 45.141998 45.141998M 25 31L 23 33.501999C 21.829998 34.963333 21.829998 37.040668 23 38.501999L 25 41.003998M 37 31L 39 33.501999C 40.170002 34.963333 40.170002 37.040668 39 38.501999L 37 41.003998M 31 34L 31 43M 29 27C 29 28.10457 29.89543 29 31 29C 32.104568 29 33 28.10457 33 27C 33 25.895432 32.104568 25 31 25C 29.89543 25 29 25.895432 29 27ZM 31.448 20.223999C 31.166042 20.08271 30.833958 20.08271 30.552 20.223999L 25.552 22.723999C 25.213659 22.893543 25.000011 23.239557 25 23.618L 25 31L 31 34L 37 31L 37 23.618C 36.999985 23.239557 36.786339 22.893543 36.447998 22.723999Z"></path></g></g></g><g id="g-root-tx_profilee_18kp2so3d6wi7-stroke" data-item-order="0" transform="translate(435.1122741699219, 147)"></g><g id="g-root-sear_ddl8bs3d5jpe-stroke" data-item-order="0" transform="translate(374.9999694824219, 231)"><g id="sear_ddl8bs3d5jpe-stroke" fill="none" stroke-linecap="round" stroke-linejoin="round" stroke-miterlimit="4" stroke="#dffff0" stroke-width="2"><g><path d="M 11 31C 11 42.045696 19.954306 51 31 51C 42.045696 51 51 42.045696 51 31C 51 19.954306 42.045696 11 31 11C 19.954306 11 11 19.954306 11 31ZM 45.144001 45.147999L 57 57M 37 29C 37 30.10457 36.104568 31 35 31L 33 31L 33 27L 35 27C 36.104568 27 37 27.89543 37 29ZM 37 33C 37 34.104568 36.104568 35 35 35L 33 35L 33 31L 35 31C 36.104568 31 37 31.89543 37 33ZM 29 33C 29 34.104568 28.10457 35 27 35C 25.895432 35 25 34.104568 25 33L 25 29C 25 27.89543 25.895432 27 27 27C 28.10457 27 29 27.89543 29 29ZM 21 27L 21 33C 21 34.104568 20.104568 35 19 35C 17.895432 35 17 34.104568 17 33M 45 27L 43 27C 41.895432 27 41 27.89543 41 29C 41 30.10457 41.895432 31 43 31C 44.104568 31 45 31.89543 45 33C 45 34.104568 44.104568 35 43 35L 41 35"></path></g></g></g><g id="g-root-tx_joblisti_1ur64bs3d6xac-stroke" data-item-order="0" transform="translate(435.1122741699219, 243)"></g><g id="g-root-star_zqxht43d44qr-stroke" data-item-order="0" transform="translate(374.9999694824219, 327)"><g id="star_zqxht43d44qr-stroke" fill="none" stroke-linecap="round" stroke-linejoin="round" stroke-miterlimit="4" stroke="#f2ffd7" stroke-width="2"><g><path d="M 46.400002 33.860001L 49.478001 41L 55.466 41C 56.085964 40.975677 56.654446 41.343216 56.886726 41.918533C 57.119007 42.493851 56.965065 43.153061 56.501999 43.566002L 51.301998 48.198002L 54.181999 54.824001C 54.441166 55.445415 54.275249 56.162895 53.769585 56.607445C 53.26392 57.051998 52.531097 57.124634 51.948002 56.788002L 45 52.866001L 38.040001 56.787998C 37.456905 57.124634 36.724083 57.051998 36.218422 56.607445C 35.712753 56.162895 35.546837 55.445415 35.806 54.824001L 38.68 48.200001L 33.48 43.568001C 33.015823 43.156952 32.85994 42.498592 33.090519 41.923042C 33.321098 41.347496 33.888412 40.978867 34.507999 41.001999L 40.5 41.001999L 43.582001 33.862C 43.860615 33.343292 44.401604 33.01952 44.990402 33.019104C 45.579201 33.018684 46.120651 33.34169 46.400002 33.860001ZM 31 57L 13 57C 11.895431 57 11 56.104568 11 55L 11 13C 11 11.895431 11.895431 11 13 11L 39.580002 11C 40.112469 10.998518 40.623543 11.209428 41 11.586L 48.400002 19C 48.775097 19.374985 48.985886 19.88361 48.986 20.414L 48.986 29M 16.993999 41L 26.993999 41M 20 31L 22 31C 22.552284 31 23 31.447716 23 32L 23 41L 23 41L 19 41L 19 41L 19 32C 19 31.447716 19.447716 31 20 31ZM 31 37L 31 26C 31 25.447716 30.552284 25 30 25L 28 25C 27.447716 25 27 25.447716 27 26L 27 41"></path></g></g></g><g id="g-root-tx_matchsco_qs644o3d6wp5-stroke" data-item-order="0" transform="translate(435.1122741699219, 339)"></g><g id="g-root-chec_hxryw83dmeq6-stroke" data-item-order="0" transform="translate(374.9999694824219, 423)"><g id="chec_hxryw83dmeq6-stroke" fill="none" stroke-linecap="round" stroke-linejoin="round" stroke-miterlimit="4" stroke="#fffbd5" stroke-width="2"><g><path d="M 51.035999 22.118L 43.466 32.209999C 43.120811 32.67308 42.591125 32.962952 42.015007 33.004044C 41.438889 33.045143 40.873421 32.833397 40.465996 32.423996L 36.125999 28.08M 36.624001 44.933998L 54.023998 44.933998C 55.668114 44.929592 56.998905 43.596119 57 41.952L 57 14.12C 56.998898 12.473544 55.664455 11.139103 54.018002 11.138L 31.158001 11.138M 14.976 18.096001C 14.976 21.938797 18.091204 25.054001 21.934002 25.054001C 25.776798 25.054001 28.892 21.938797 28.892 18.096001C 28.892 14.253202 25.776798 11.138 21.934002 11.138C 18.091204 11.138 14.976 14.253202 14.976 18.096001M 15.07 19.243999C 17.709038 19.213655 20.208313 18.05286 21.934 16.056C 23.659557 18.053904 26.160227 19.214279 28.799999 19.242001M 26.341999 29.455999L 21.934 36.398003L 17.563999 29.427999M 21.934 28.035999C 25.429478 28.036179 28.467791 30.435719 29.278 33.835999L 32.877998 46.919998L 26.99 46.919998L 24.894001 56.860001L 18.93 56.860001L 16.834 46.919998L 11 46.919998L 14.587999 33.835999C 15.399035 30.435408 18.43803 28.035984 21.934 28.035999Z"></path></g></g></g><g id="g-root-tx_qualific_1upap2g3d6y9x-stroke" data-item-order="0" transform="translate(435.1122741699219, 435)"></g><g id="g-root-2_18fp6y03d8dfk-stroke" data-item-order="0" transform="translate(374.9999694824219, 519)"><g id="2_18fp6y03d8dfk-stroke" fill="none" stroke-linecap="round" stroke-linejoin="round" stroke-miterlimit="4" stroke="#fff0e2" stroke-width="2"><g><path d="M 28.908001 24C 28.908001 26.761423 31.146576 29 33.908001 29C 36.669426 29 38.908001 26.761423 38.908001 24C 38.908001 21.238577 36.669426 19 33.908001 19C 31.146576 19 28.908001 21.238577 28.908001 24M 26.247999 38.341999C 26.24892 34.06134 29.719339 30.591665 34 30.591665C 38.280659 30.591665 41.751076 34.06134 41.751999 38.341999M 42.403999 18.298C 42.402828 22.329401 45.670597 25.598118 49.701996 25.598118C 53.733398 25.598118 57.001167 22.329401 56.999996 18.298C 57.001167 14.266598 53.733398 10.997881 49.701996 10.997881C 45.670597 10.997881 42.402828 14.266598 42.403999 18.298M 46.458 18.298L 52.945999 18.298M 49.702 21.542L 49.702 15.054M 52.062 29.6L 57 33L 57 54C 57 55.656857 55.656857 57 54 57L 14 57C 12.343145 57 11 55.656857 11 54L 11 33L 23.563999 24.362M 17 51L 27 43L 41 43L 51 51M 57 33L 45 41M 11 33L 23 41"></path></g></g></g><g id="g-root-tx_candidat_mah6qw3d6ygz-stroke" data-item-order="0" transform="translate(435.1122741699219, 531)"></g></g></g></svg>